<svg width="72.785004" height="48.010010" viewBox="0 0 72.785 48.01" fill="none" xmlns="http://www.w3.org/2000/svg" xmlns:xlink="http://www.w3.org/1999/xlink">
	<desc>
			Created with Pixso.
	</desc>
	<defs/>
	<path id="Vector" d="M68.89 20.27C68.81 17.28 65.52 14.54 59.59 12.5C59.99 11.68 60.21 10.79 60.21 9.88C60.21 6.34 57.06 3.47 53.19 3.47C52.31 3.47 51.46 3.61 50.65 3.91C49.34 2.45 47.19 1.56 44.9 1.56C43.86 1.56 42.83 1.75 41.89 2.09C40.26 0.76 38.04 0 35.71 0C32.59 0 29.75 1.34 28.19 3.52C24.51 3.12 21.22 4.78 19.97 7.39C16.88 7.44 14.35 9.54 13.96 12.24C7.54 14.3 3.97 17.14 3.88 20.27L0.01 35.41L0 35.57C0 42.54 15.98 48.01 36.39 48.01C56.79 48.01 72.78 42.54 72.78 35.57L68.89 20.27ZM20.09 8.67C20.14 8.67 20.2 8.67 20.25 8.67L20.82 8.7L20.98 8.27C21.77 6.2 24.32 4.75 27.17 4.75C27.58 4.75 27.99 4.78 28.41 4.84L28.82 4.9L29.04 4.55C30.31 2.53 32.86 1.28 35.71 1.28C37.87 1.28 39.92 2.01 41.34 3.31L41.64 3.58L42.02 3.42C42.9 3.04 43.89 2.84 44.9 2.84C46.99 2.84 48.92 3.69 49.94 5.05L50.24 5.46L50.7 5.26C51.49 4.92 52.32 4.75 53.19 4.75C56.36 4.75 58.93 7.05 58.93 9.88C58.93 10.8 58.64 11.7 58.11 12.49L58.11 12.49C58.11 12.49 58.11 12.5 58.1 12.5C58.06 12.56 58.03 12.62 57.99 12.68L57.96 12.72L57.34 13.55L57.35 13.55L58.42 13.69C60.92 14.04 62.74 15.23 62.74 16.54C62.74 17.32 62.08 17.93 61.56 18.28C61.48 18.34 61.4 18.39 61.33 18.43L60.29 19.06L61.39 19.56C62.52 20.08 63.19 20.92 63.19 21.8C63.19 23.12 60.6 24.52 58.16 24.52L58.06 24.52L57.96 24.56C56.84 24.93 55.69 25.27 54.51 25.57C49.51 26.88 43.97 27.55 37.95 27.55C27.65 27.55 18.82 25.59 15.82 24.84C15.13 24.66 14.74 24.56 14.72 24.55L14.55 24.53C11.81 24.53 9.59 22.55 9.59 20.12C9.59 17.7 11.81 15.72 14.55 15.72C14.72 15.72 14.89 15.73 15.05 15.75L16.25 15.85L15.67 14.8C15.35 14.22 15.19 13.6 15.19 12.96C15.19 12.92 15.19 12.88 15.19 12.84L15.21 12.51C15.47 10.36 17.56 8.67 20.09 8.67ZM13.95 13.59C13.95 13.61 13.96 13.64 13.96 13.67C13.97 13.71 13.98 13.75 13.98 13.79C14.02 14.01 14.07 14.23 14.14 14.45C14.14 14.45 14.14 14.45 14.14 14.46C10.89 14.65 8.31 17.12 8.31 20.12C8.31 23.23 11.06 25.76 14.46 25.8C14.61 25.85 14.97 25.94 15.51 26.08C18.58 26.85 27.52 28.83 37.95 28.83C37.95 28.83 37.95 28.83 37.95 28.83C45.48 28.83 52.32 27.81 58.27 25.8C61.22 25.76 64.47 24.07 64.47 21.8C64.47 21.53 64.43 21.25 64.36 20.99C64.14 20.2 63.61 19.48 62.83 18.92C63.6 18.23 64.02 17.41 64.02 16.54C64.02 16.48 64.01 16.42 64.01 16.35C64 16.3 64 16.25 64 16.2C63.99 16.14 63.97 16.08 63.96 16.02C63.95 15.97 63.94 15.91 63.93 15.86C63.92 15.84 63.92 15.83 63.92 15.81C66.31 17.23 67.62 18.8 67.62 20.38C67.62 25.15 55.07 30.25 36.39 30.25C17.7 30.25 5.16 25.15 5.16 20.38C5.16 17.91 8.35 15.45 13.95 13.59ZM36.39 46.73C17.43 46.73 1.41 41.66 1.27 35.64L4.57 22.73C7.64 27.82 20.51 31.53 36.39 31.53C52.26 31.53 65.13 27.82 68.2 22.73L71.5 35.64C71.36 41.66 55.34 46.73 36.39 46.73Z" fill="#124C5F" fill-opacity="1.000000" fill-rule="evenodd"/>
	<path id="Vector" d="M47.59 36.3C47.59 34.61 46.22 33.23 44.52 33.23C42.89 33.23 41.54 34.52 41.46 36.14L31.31 36.14C31.23 34.52 29.89 33.23 28.25 33.23C26.56 33.23 25.18 34.61 25.18 36.3C25.18 37.29 25.65 38.16 26.38 38.73C25.65 39.29 25.18 40.17 25.18 41.15C25.18 42.84 26.56 44.22 28.25 44.22C29.89 44.22 31.23 42.93 31.31 41.31L41.46 41.31C41.54 42.93 42.89 44.22 44.52 44.22C46.22 44.22 47.59 42.84 47.59 41.15C47.59 40.17 47.12 39.29 46.4 38.73C47.12 38.16 47.59 37.29 47.59 36.3ZM46.31 41.15C46.31 42.14 45.51 42.94 44.52 42.94C43.54 42.94 42.74 42.14 42.74 41.15C42.74 41.03 42.75 40.91 42.78 40.8L42.93 40.03L29.84 40.03L30 40.8C30.02 40.91 30.03 41.03 30.03 41.15C30.03 42.14 29.23 42.94 28.25 42.94C27.26 42.94 26.46 42.14 26.46 41.15C26.46 40.17 27.26 39.37 28.25 39.37L28.25 38.09C27.26 38.09 26.46 37.28 26.46 36.3C26.46 35.31 27.26 34.51 28.25 34.51C29.23 34.51 30.03 35.31 30.03 36.3C30.03 36.42 30.02 36.54 30 36.66L29.84 37.43L42.93 37.43L42.78 36.66C42.75 36.54 42.74 36.42 42.74 36.3C42.74 35.31 43.54 34.51 44.52 34.51C45.51 34.51 46.31 35.31 46.31 36.3C46.31 37.28 45.51 38.09 44.52 38.09L44.52 39.37C45.51 39.36 46.31 40.17 46.31 41.15Z" fill="#124C5F" fill-opacity="1.000000" fill-rule="evenodd"/>
</svg>
