<svg width="29.000000" height="36.000000" viewBox="0 0 29 36" fill="none" xmlns="http://www.w3.org/2000/svg" xmlns:xlink="http://www.w3.org/1999/xlink">
	<desc>
			Created with Pixso.
	</desc>
	<defs>
		<clipPath id="clip2_384">
			<rect id="behance" width="29.000000" height="36.000000" fill="white" fill-opacity="0"/>
		</clipPath>
	</defs>
	<rect id="behance" width="29.000000" height="36.000000" fill="#000000" fill-opacity="0"/>
	<g clip-path="url(#clip2_384)">
		<path id="Vector" d="M11.68 16.82C13.28 15.87 14.11 14.43 14.11 12.2C14.11 7.78 11.46 6.71 8.41 6.71L0 6.71L0 28.86L8.64 28.86C11.89 28.86 14.93 26.93 14.93 22.43C14.93 19.64 13.87 17.59 11.68 16.82ZM3.92 10.49L7.6 10.49C9.01 10.49 10.29 10.98 10.29 13.02C10.29 14.9 9.29 15.66 7.89 15.66L3.92 15.66L3.92 10.49ZM8.11 25.09L3.92 25.09L3.92 19L8.19 19C9.92 19 11.01 19.89 11.01 22.16C11.01 24.39 9.71 25.09 8.11 25.09ZM26.16 10.05L18.93 10.05L18.93 7.87L26.16 7.87L26.16 10.05ZM29 21.07C29 16.33 26.76 12.37 22.71 12.37C18.77 12.37 16.1 16.04 16.1 20.86C16.1 25.85 18.63 29.28 22.71 29.28C25.79 29.28 27.79 27.55 28.75 23.88L25.62 23.88C25.28 25.25 23.89 25.98 22.82 25.98C20.74 25.98 19.65 24.46 19.65 21.89L28.96 21.89C28.98 21.63 29 21.35 29 21.07ZM19.65 19.12C19.77 17.01 20.89 15.7 22.6 15.7C24.38 15.7 25.27 17 25.43 19.12L19.65 19.12Z" fill="#5B5B5B" fill-opacity="1.000000" fill-rule="evenodd"/>
	</g>
</svg>
