<svg width="34.000000" height="13.754883" viewBox="0 0 34 13.7549" fill="none" xmlns="http://www.w3.org/2000/svg" xmlns:xlink="http://www.w3.org/1999/xlink">
	<desc>
			Created with Pixso.
	</desc>
	<defs/>
	<path id="Vector" d="M33.58 5.91C33.98 5.08 34.09 4.14 33.91 3.23C33.77 2.46 33.42 1.75 32.91 1.2C32.39 0.64 31.73 0.25 31.01 0.09C30.44 -0.04 29.85 -0.04 29.28 0.11C28.71 0.26 28.18 0.54 27.73 0.94C26.61 1.89 25.21 2.39 23.78 2.36L10.21 2.36C8.78 2.39 7.38 1.89 6.26 0.94C5.81 0.54 5.28 0.26 4.71 0.11C4.14 -0.04 3.55 -0.04 2.98 0.09C2.26 0.25 1.6 0.64 1.08 1.2C0.57 1.75 0.22 2.46 0.08 3.23C-0.1 4.14 0.01 5.08 0.41 5.91C0.55 6.21 0.62 6.54 0.62 6.87C0.62 7.2 0.55 7.53 0.41 7.83C0.02 8.66 -0.1 9.6 0.08 10.51C0.22 11.28 0.57 11.99 1.08 12.55C1.6 13.11 2.26 13.49 2.98 13.65C3.55 13.79 4.14 13.78 4.71 13.64C5.28 13.49 5.81 13.21 6.26 12.81C7.38 11.86 8.78 11.35 10.21 11.38L23.78 11.38C25.21 11.35 26.61 11.86 27.73 12.81C28.18 13.21 28.71 13.49 29.28 13.64C29.85 13.78 30.44 13.79 31.01 13.65C31.73 13.49 32.39 13.11 32.91 12.55C33.42 11.99 33.77 11.28 33.91 10.51C34.09 9.6 33.97 8.66 33.58 7.83C33.44 7.53 33.37 7.2 33.37 6.87C33.37 6.54 33.44 6.21 33.58 5.91Z" fill="#DDCA69" fill-opacity="1.000000" fill-rule="evenodd"/>
</svg>
