<svg width="34.000000" height="13.754883" viewBox="0 0 34 13.7549" fill="none" xmlns="http://www.w3.org/2000/svg" xmlns:xlink="http://www.w3.org/1999/xlink">
	<desc>
			Created with Pixso.
	</desc>
	<defs/>
	<path id="Vector" d="M33.58 5.91C33.98 5.08 34.09 4.14 33.91 3.23C33.77 2.46 33.42 1.75 32.91 1.2C32.39 0.64 31.73 0.25 31.01 0.09C30.44 -0.04 29.85 -0.04 29.28 0.11C28.71 0.26 28.18 0.54 27.73 0.94C26.61 1.89 25.21 2.39 23.78 2.36L10.21 2.36C8.78 2.39 7.38 1.89 6.26 0.94C5.81 0.54 5.28 0.26 4.71 0.11C4.14 -0.04 3.55 -0.04 2.98 0.09C2.26 0.25 1.6 0.64 1.08 1.2C0.57 1.75 0.22 2.46 0.08 3.23C-0.1 4.14 0.01 5.08 0.41 5.91C0.55 6.21 0.62 6.54 0.62 6.87C0.62 7.2 0.55 7.53 0.41 7.83C0.02 8.66 -0.1 9.6 0.08 10.51C0.22 11.28 0.57 11.99 1.08 12.55C1.6 13.11 2.26 13.49 2.98 13.65C3.55 13.79 4.14 13.78 4.71 13.64C5.28 13.49 5.81 13.21 6.26 12.81C7.38 11.86 8.78 11.35 10.21 11.38L23.78 11.38C25.21 11.35 26.61 11.86 27.73 12.81C28.18 13.21 28.71 13.49 29.28 13.64C29.85 13.78 30.44 13.79 31.01 13.65C31.73 13.49 32.39 13.11 32.91 12.55C33.42 11.99 33.77 11.28 33.91 10.51C34.09 9.6 33.97 8.66 33.58 7.83C33.44 7.53 33.37 7.2 33.37 6.87C33.37 6.54 33.44 6.21 33.58 5.91ZM32.65 2.58C32.78 2.84 32.88 3.12 32.93 3.41L32.93 3.43C33 3.78 33.01 4.13 32.97 4.48C32.93 4.83 32.83 5.16 32.68 5.48C32.47 5.92 32.37 6.38 32.37 6.87C32.37 7.36 32.47 7.82 32.68 8.26C32.83 8.57 32.93 8.91 32.97 9.26C33.01 9.61 33 9.97 32.93 10.33C32.88 10.62 32.78 10.9 32.65 11.16C32.53 11.42 32.37 11.66 32.17 11.87C31.98 12.07 31.77 12.25 31.53 12.38C31.3 12.52 31.05 12.62 30.78 12.68C30.36 12.78 29.94 12.77 29.53 12.67C29.11 12.56 28.73 12.36 28.39 12.06L28.38 12.05L28.37 12.04C27.72 11.49 27 11.07 26.21 10.79C25.41 10.5 24.6 10.37 23.78 10.38L10.23 10.38C9.39 10.37 8.58 10.5 7.78 10.79C6.99 11.07 6.27 11.49 5.62 12.04L5.61 12.05L5.6 12.06C5.26 12.36 4.88 12.56 4.46 12.67C4.05 12.77 3.62 12.78 3.2 12.67C2.94 12.62 2.69 12.52 2.46 12.38C2.22 12.25 2.01 12.07 1.82 11.87C1.62 11.66 1.46 11.42 1.34 11.16C1.21 10.9 1.11 10.62 1.06 10.31C0.99 9.96 0.98 9.61 1.02 9.26C1.06 8.91 1.16 8.58 1.31 8.26C1.52 7.82 1.62 7.36 1.62 6.87C1.62 6.38 1.52 5.92 1.31 5.48C1.16 5.16 1.06 4.83 1.02 4.48C0.98 4.13 0.99 3.77 1.06 3.41C1.11 3.12 1.21 2.84 1.34 2.58C1.46 2.32 1.62 2.08 1.82 1.87C2.01 1.67 2.22 1.5 2.46 1.36C2.69 1.22 2.94 1.13 3.21 1.07C3.63 0.97 4.05 0.97 4.46 1.08C4.88 1.19 5.26 1.39 5.6 1.69L5.61 1.7L5.62 1.7C6.27 2.26 6.99 2.67 7.78 2.96C8.57 3.24 9.39 3.37 10.22 3.36L23.77 3.36C24.6 3.37 25.42 3.24 26.21 2.96C27 2.67 27.72 2.26 28.37 1.7L28.38 1.7L28.39 1.69C28.73 1.39 29.11 1.19 29.53 1.08C29.94 0.97 30.37 0.97 30.8 1.07C31.05 1.13 31.3 1.22 31.53 1.36C31.77 1.5 31.98 1.67 32.17 1.87C32.37 2.08 32.53 2.32 32.65 2.58Z" fill="#DDCA69" fill-opacity="1.000000" fill-rule="evenodd"/>
</svg>
