<svg width="106.894241" height="73.545166" viewBox="0 0 106.894 73.5452" fill="none" xmlns="http://www.w3.org/2000/svg" xmlns:xlink="http://www.w3.org/1999/xlink">
	<desc>
			Created with Pixso.
	</desc>
	<defs/>
	<path id="Vector" d="M74.87 45.4C72.37 44.99 69.9 46.34 68.85 48.68C68.65 49.13 68.51 49.6 68.43 50.07C71.01 48.8 73.27 47.27 75.22 45.46L74.87 45.4Z" fill="#124C5F" fill-opacity="1.000000" fill-rule="evenodd"/>
	<path id="Vector" d="M80.16 8.59C83.21 13.34 81.88 19.69 77.19 22.77C72.5 25.86 66.23 24.52 63.18 19.77C60.13 15.03 61.46 8.68 66.15 5.59C70.83 2.5 77.11 3.84 80.16 8.59Z" fill="#124C5F" fill-opacity="1.000000" fill-rule="evenodd"/>
	<path id="Vector" d="M95.78 25.36C91.4 19.87 85.45 19.81 82.16 22.05C78.88 24.29 79.12 29.98 81.86 33.79C81.99 34 82.12 34.22 82.25 34.44C83.19 31.54 83.33 29.43 83.33 29.4C83.42 26.94 85.4 25.01 87.82 25.01C87.88 25.01 87.94 25.01 87.99 25.01C90.47 25.11 92.42 27.23 92.32 29.74L92.32 29.74L92.32 29.79C92.25 31.19 91.77 36.25 88.76 42.26C88.48 42.81 88.16 43.41 87.79 44.05C88.42 45.28 89.03 46.52 89.58 47.79L85.74 47.17C83.15 50.69 79.17 54.69 73.26 57.82L90.42 72.21C91.47 73.09 92.74 73.51 94.01 73.51C95.62 73.51 97.23 72.81 98.34 71.45C100.32 69.03 99.99 65.43 97.6 63.43L93.47 59.97L94.8 60.18C95.22 60.25 95.63 60.27 96.03 60.24C97 60.29 98.14 59.95 99.54 59.45C103.44 58.08 107.85 55.66 106.7 48.27C104.39 38.35 101.75 32.95 95.78 25.36Z" fill="#124C5F" fill-opacity="1.000000" fill-rule="evenodd"/>
	<path id="Vector" d="M87.96 41.84C91.2 35.38 91.41 30.04 91.43 29.7C91.5 27.69 89.95 26 87.96 25.93C85.97 25.85 84.31 27.42 84.23 29.43L84.23 29.43C84.22 29.66 83.92 34.05 81.29 39.01C78.63 43.97 73.86 49.54 64.18 52.81C62.29 53.44 61.27 55.5 61.89 57.41C62.39 58.94 63.8 59.92 65.31 59.92C65.69 59.92 66.07 59.86 66.44 59.73C78.27 55.81 84.75 48.29 87.96 41.84Z" fill="#124C5F" fill-opacity="1.000000" fill-rule="evenodd"/>
	<path id="Vector" d="M40.53 59.19C42.17 59.5 44.13 60.02 44.66 60.58C46.06 62.08 46.74 65.17 48.56 65.39C49.83 65.54 50.28 65.51 51.85 64.49C53.4 63.47 51.93 59.51 51.56 57.99C51.03 55.83 52.29 53.45 52.31 53.31C52.32 53.19 53.4 50.89 56.52 51.77C57.61 52.07 56.97 50.03 55.27 49.01C53.24 47.8 51.77 48.37 50.28 49.54C47.42 47.32 42.93 47.76 40.38 48.72C39.97 50.41 39.81 52.04 39.81 53.53C39.81 55.81 40.17 57.79 40.53 59.19ZM47.8 54.4C48.47 53.94 49.38 54.11 49.84 54.79C50.29 55.46 50.12 56.38 49.45 56.84C48.78 57.3 47.87 57.13 47.42 56.45C46.96 55.78 47.14 54.86 47.8 54.4Z" fill="#124C5F" fill-opacity="1.000000" fill-rule="evenodd"/>
	<path id="Vector" d="M38.54 48.67C37.87 48.68 37.24 48.66 36.64 48.61C36.43 48.56 36.21 48.53 35.98 48.54C35.96 48.54 35.95 48.55 35.94 48.55C26.76 47.49 24.26 40.46 13.53 47.76C10.29 46.79 6.43 44.72 3.5 40.3C2.91 39.41 1.72 39.17 0.84 39.77C-0.04 40.37 -0.27 41.58 0.32 42.47C3.11 46.63 6.55 49.07 9.77 50.5C9.74 50.58 9.7 50.67 9.66 50.76C8.83 52.03 8.18 53.69 7.76 55.9C7.7 56.22 5.07 73.2 9.2 73.2C13.33 73.2 14.46 60.36 16.76 58.71C17.09 58.74 23.21 65.24 28.44 64.42C29.66 64.23 31.32 63.46 32.7 62.65L34.96 71.81C35.22 72.84 36.12 73.54 37.14 73.54C37.25 73.54 37.37 73.53 37.48 73.51C38.63 73.34 39.45 72.32 39.39 71.14L38.81 59.73C38.41 58.2 38.01 56.05 38.01 53.53C38.01 52.02 38.16 50.38 38.54 48.67Z" fill="#124C5F" fill-opacity="1.000000" fill-rule="evenodd"/>
	<path id="Vector" d="M58.62 71.09L58.05 71.09L56.89 67.45L43.9 67.45L42.74 71.09L42.18 71.09C41.72 71.09 41.35 71.47 41.35 71.93C41.35 72.4 41.72 72.77 42.18 72.77L58.62 72.77C59.08 72.77 59.45 72.4 59.45 71.93C59.45 71.47 59.08 71.09 58.62 71.09Z" fill="#124C5F" fill-opacity="1.000000" fill-rule="evenodd"/>
</svg>
