<svg width="76.910004" height="55.398224" viewBox="0 0 76.91 55.3982" fill="none" xmlns="http://www.w3.org/2000/svg" xmlns:xlink="http://www.w3.org/1999/xlink">
	<desc>
			Created with Pixso.
	</desc>
	<defs/>
	<path id="Vector" d="M33.23 9.57C17.14 14.21 1.23 23.42 3.52 31.4L6.89 43.08C9.19 51.06 27.58 50.45 43.67 45.81C59.76 41.18 75.67 31.97 73.38 23.99L69.99 12.24C67.71 4.33 49.32 4.94 33.23 9.57ZM25.87 46.1C16.81 46.74 10.61 45.19 9.78 42.32L7.93 35.89C11.84 37.64 17.91 37.93 24.69 37.27C23.67 39 23.45 41.11 23.99 43C24.34 44.19 25.01 45.21 25.87 46.1ZM15.22 34.39C20.38 30.48 28.4 26.73 37.42 24.13C46.45 21.52 55.23 20.43 61.68 21C56.88 24.58 49.18 28.39 39.46 31.19C29.75 34.07 21.21 34.94 15.22 34.39ZM70.51 24.82C71.8 29.3 60.76 37.78 42.85 42.95C39 44.06 35.44 44.85 32.03 45.38C29.71 45.75 27.49 44.34 26.86 42.17C26.5 40.91 26.67 39.65 27.4 38.53C28.07 37.43 29.21 36.65 30.51 36.42C33.76 35.87 37.09 35.06 40.31 34.13C52.41 30.64 64.44 24.52 68.63 18.31L70.51 24.82ZM64.71 18.38C57.69 17.15 47.3 18.17 36.59 21.26C25.89 24.34 16.55 29.01 11.26 33.79C8.57 33.12 6.82 32.04 6.39 30.57C5.1 26.09 16.14 17.61 34.05 12.44C51.96 7.28 65.85 8.66 67.12 13.07C67.54 14.53 66.64 16.39 64.71 18.38Z" fill="#4AB1D2" fill-opacity="0.520000" fill-rule="evenodd"/>
	<path id="Vector" d="M33.41 40.44C33.69 41.4 33.13 42.41 32.16 42.69C31.2 42.97 30.19 42.41 29.91 41.45C29.63 40.48 30.19 39.47 31.16 39.19C32.12 38.91 33.13 39.47 33.41 40.44Z" fill="#4AB1D2" fill-opacity="0.520000" fill-rule="evenodd"/>
	<path id="Vector" d="M39.04 39.19C39.32 40.16 38.76 41.17 37.79 41.45C36.83 41.73 35.82 41.17 35.54 40.2C35.26 39.24 35.82 38.23 36.78 37.95C37.75 37.67 38.76 38.23 39.04 39.19Z" fill="#4AB1D2" fill-opacity="0.520000" fill-rule="evenodd"/>
	<path id="Vector" d="M44.67 37.72C44.95 38.69 44.4 39.7 43.43 39.97C42.46 40.25 41.45 39.7 41.18 38.73C40.9 37.76 41.46 36.75 42.42 36.48C43.39 36.2 44.4 36.75 44.67 37.72Z" fill="#4AB1D2" fill-opacity="0.520000" fill-rule="evenodd"/>
	<path id="Vector" d="M50.16 35.99C50.44 36.95 49.88 37.96 48.92 38.24C47.95 38.52 46.94 37.96 46.66 37C46.38 36.03 46.94 35.02 47.91 34.74C48.87 34.46 49.88 35.02 50.16 35.99Z" fill="#4AB1D2" fill-opacity="0.520000" fill-rule="evenodd"/>
</svg>
