<svg width="67.000000" height="67.000000" viewBox="0 0 67 67" fill="none" xmlns="http://www.w3.org/2000/svg" xmlns:xlink="http://www.w3.org/1999/xlink">
	<desc>
			Created with Pixso.
	</desc>
	<defs/>
	<path id="Vector" d="M10.65 58.01C16.91 63.83 24.96 67 33.47 67C33.87 67 34.28 67 34.68 66.97C53.14 66.31 67.63 50.76 66.97 32.31C66.65 23.36 62.88 15.09 56.32 8.99C49.79 2.89 41.27 -0.28 32.31 0.01C13.85 0.67 -0.64 16.22 0.02 34.68C0.32 43.63 4.11 51.91 10.65 58.01ZM59.73 49.45C55.62 44.86 53.25 39.02 53.03 32.81C52.8 26.6 54.77 20.6 58.54 15.73C62 20.57 63.97 26.34 64.2 32.42C64.4 38.63 62.74 44.5 59.73 49.45ZM32.41 2.81C32.78 2.79 33.15 2.79 33.52 2.79C41.31 2.79 48.7 5.69 54.44 11.03C55.27 11.79 56.04 12.62 56.77 13.47C52.31 18.95 49.98 25.79 50.23 32.9C50.49 40 53.29 46.66 58.11 51.81C52.73 59.03 44.25 63.83 34.57 64.18C26.39 64.48 18.56 61.55 12.55 55.97C11.72 55.2 10.95 54.38 10.22 53.53C14.68 48.04 17.01 41.2 16.76 34.1C16.5 26.99 13.7 20.34 8.88 15.19C14.26 7.96 22.73 3.15 32.41 2.81ZM7.26 17.54C11.37 22.14 13.74 27.97 13.96 34.18C14.19 40.39 12.22 46.39 8.45 51.27C4.99 46.42 3.02 40.66 2.79 34.57C2.59 28.36 4.25 22.5 7.26 17.54Z" fill="#9ED6E7" fill-opacity="1.000000" fill-rule="evenodd"/>
</svg>
