<svg width="77.114670" height="76.752075" viewBox="0 0 77.1147 76.7521" fill="none" xmlns="http://www.w3.org/2000/svg" xmlns:xlink="http://www.w3.org/1999/xlink">
	<desc>
			Created with Pixso.
	</desc>
	<defs/>
	<path id="Vector" d="M51.95 36.95C56.84 42.73 65.16 34.11 65.14 28.08C70.67 18.31 59.85 11.97 53.86 21.05C47.84 24.09 44.98 35.58 51.95 36.95ZM52.87 35.32C46.37 34.65 50.74 24.65 54.79 22.43L54.9 21.85C60.09 13.83 68.12 19.02 62.93 27.04L62.82 27.62C63.07 32.49 56.6 40.87 52.29 35.2L52.87 35.32Z" fill="#4AB1D2" fill-opacity="0.520000" fill-rule="evenodd"/>
	<path id="Vector" d="M34.16 26.23C39.05 32.01 47.37 23.39 47.35 17.36C52.88 7.59 42.06 1.25 35.95 10.91C29.93 13.95 27.08 25.44 34.04 26.81L34.16 26.23ZM35.08 24.6C28.58 23.93 32.95 13.94 37 11.72L37.11 11.13C42.3 3.11 50.33 8.3 45.14 16.32L45.02 16.9C45.28 21.78 38.81 30.15 34.5 24.49L35.08 24.6Z" fill="#4AB1D2" fill-opacity="0.520000" fill-rule="evenodd"/>
	<path id="Vector" d="M57.95 58.62C62.49 63.12 69.9 59.15 68.71 52.89C72.51 45.8 62.28 39.57 57.32 46.44C51.53 48.32 51.68 56.78 57.37 58.5L57.95 58.62ZM58.87 56.99L58.29 56.87C53.76 55.38 53.85 48.77 58.25 47.83L58.95 47.36C62.41 42.01 70.43 47.2 66.97 52.55L66.86 53.13C67.8 57.53 62.25 61.27 58.76 57.57L58.87 56.99Z" fill="#4AB1D2" fill-opacity="0.520000" fill-rule="evenodd"/>
	<path id="Vector" d="M12.6 31.65C17.14 36.15 24.55 32.18 23.37 25.92C27.17 18.83 16.93 12.61 11.97 19.47C6.18 21.35 6.33 29.82 12.02 31.53L12.6 31.65ZM13.52 30.02L12.94 29.91C8.41 28.42 8.5 21.8 12.91 20.86L13.6 20.39C17.06 15.04 25.08 20.23 21.62 25.58L21.51 26.16C22.46 30.57 16.9 34.3 13.41 30.6L13.52 30.02Z" fill="#4AB1D2" fill-opacity="0.520000" fill-rule="evenodd"/>
	<path id="Vector" d="M49 55.05C58.33 38.2 30.31 21.25 19.93 37.3C0 43.65 9.8 58.22 22.13 66.06C34.57 73.32 52.79 75.69 49 55.05ZM47.26 54.71L47.15 55.29C50.7 74.07 34.22 72.05 22.94 65.02C11.66 57.98 1.52 45.15 20.17 39.16L20.86 38.69C30.43 23.69 55.67 39.48 47.26 54.71Z" fill="#4AB1D2" fill-opacity="0.520000" fill-rule="evenodd"/>
</svg>
