<svg width="71.474487" height="61.968262" viewBox="0 0 71.4745 61.9683" fill="none" xmlns="http://www.w3.org/2000/svg" xmlns:xlink="http://www.w3.org/1999/xlink">
	<desc>
			Created with Pixso.
	</desc>
	<defs/>
	<path id="Vector" d="M61.13 14.21C59.27 9.8 54.15 7.73 49.74 9.59C45.85 11.24 43.79 15.26 44.58 19.23L21.14 29.15C18.84 25.81 14.52 24.49 10.63 26.14C6.22 28.01 4.14 33.13 6.01 37.54C6.82 39.45 8.22 40.98 10.03 41.86C9.42 43.82 9.52 45.83 10.33 47.75C12.2 52.16 17.32 54.23 21.73 52.37C25.61 50.72 27.68 46.7 26.88 42.73L50.27 32.83C52.57 36.17 56.89 37.49 60.78 35.84C65.19 33.98 67.26 28.86 65.4 24.45C64.59 22.53 63.19 21 61.38 20.13C62.04 18.14 61.94 16.13 61.13 14.21ZM58.76 22.67C60.37 23.08 61.68 24.24 62.32 25.75C63.48 28.48 62.2 31.61 59.48 32.77C56.81 33.9 53.72 32.74 52.51 30.04C52.14 29.17 51.17 28.83 50.3 29.19L24.25 40.22C23.38 40.59 23.03 41.55 23.32 42.39C24.39 45.08 23.15 48.14 20.43 49.29C17.7 50.45 14.56 49.17 13.41 46.45C12.77 44.94 12.85 43.19 13.68 41.75C13.96 41.29 13.94 40.75 13.74 40.28C13.54 39.82 13.12 39.45 12.65 39.31C11.03 38.9 9.72 37.74 9.09 36.23C7.93 33.51 9.2 30.37 11.93 29.22C14.6 28.09 17.69 29.24 18.9 31.94C19.27 32.81 20.24 33.16 21.11 32.79L47.27 21.72C48.14 21.35 48.49 20.38 48.2 19.55C47.13 16.85 48.37 13.8 51.1 12.64C53.82 11.49 56.96 12.76 58.12 15.49C58.75 17 58.67 18.74 57.85 20.19C57.56 20.65 57.59 21.19 57.78 21.65C57.86 22.16 58.29 22.53 58.76 22.67Z" fill="#A0D6E7" fill-opacity="1.000000" fill-rule="evenodd"/>
	<path id="Vector" d="M30.63 18.91C31.5 18.54 31.9 17.55 31.53 16.68L29.79 12.56C29.42 11.69 28.43 11.29 27.56 11.66C26.69 12.03 26.28 13.02 26.65 13.89L28.4 18.01C28.76 18.88 29.76 19.28 30.63 18.91Z" fill="#A0D6E7" fill-opacity="1.000000" fill-rule="evenodd"/>
	<path id="Vector" d="M36.85 17.78C37.13 17.8 37.33 17.78 37.56 17.68C38.14 17.44 38.58 16.85 38.59 16.23L38.76 11.78C38.79 10.87 38.05 10.09 37.12 10.01C36.22 9.98 35.44 10.72 35.35 11.64L35.18 16.09C35.15 17 35.89 17.78 36.85 17.78Z" fill="#A0D6E7" fill-opacity="1.000000" fill-rule="evenodd"/>
	<path id="Vector" d="M23.13 22.7C23.66 23.16 24.31 23.22 24.89 22.98C25.12 22.88 25.33 22.72 25.45 22.53C26.06 21.87 26.02 20.79 25.33 20.13L22.01 17.15C21.35 16.54 20.27 16.59 19.61 17.28C19 17.95 19.04 19.02 19.73 19.69L23.13 22.7Z" fill="#A0D6E7" fill-opacity="1.000000" fill-rule="evenodd"/>
	<path id="Vector" d="M40.84 43.05C39.97 43.42 39.57 44.41 39.94 45.28L41.68 49.4C42.05 50.27 43.04 50.67 43.91 50.3C44.78 49.93 45.18 48.94 44.81 48.07L43.07 43.95C42.7 43.08 41.71 42.68 40.84 43.05Z" fill="#A0D6E7" fill-opacity="1.000000" fill-rule="evenodd"/>
	<path id="Vector" d="M34.61 44.18C33.71 44.15 32.93 44.89 32.84 45.82L32.67 50.27C32.64 51.17 33.39 51.95 34.31 52.04C34.59 52.05 34.79 52.04 35.02 51.94C35.6 51.69 36.04 51.1 36.05 50.48L36.22 46.03C36.31 44.96 35.57 44.18 34.61 44.18Z" fill="#A0D6E7" fill-opacity="1.000000" fill-rule="evenodd"/>
	<path id="Vector" d="M48.34 39.26C47.67 38.65 46.59 38.7 45.93 39.39C45.32 40.06 45.36 41.13 46.06 41.8L49.37 44.78C49.9 45.23 50.55 45.3 51.13 45.06C51.36 44.96 51.57 44.8 51.69 44.61C52.3 43.94 52.26 42.87 51.56 42.2L48.34 39.26Z" fill="#A0D6E7" fill-opacity="1.000000" fill-rule="evenodd"/>
</svg>
