<svg width="535.130615" height="525.297729" viewBox="0 0 535.131 525.298" fill="none" xmlns="http://www.w3.org/2000/svg" xmlns:xlink="http://www.w3.org/1999/xlink">
	<desc>
			Created with Pixso.
	</desc>
	<defs/>
	<path id="Vector" d="M515.5 87.19C542.23 140.39 536.59 208.09 528.01 262.56C519.74 317.44 508.83 359.53 489.51 396.25C470.55 433.02 443.23 464.06 408.77 485.78C374.72 507.18 333.17 519.21 285 523.5C236.78 528.17 181.22 524.98 129.57 498.65C77.88 472.69 29.73 423.53 9.91 362.68C-9.5 301.5 -0.59 228.64 38.24 183.08C76.67 137.85 145.01 119.92 205.18 86.88C265.71 53.89 318.12 5.42 374.08 0.38C429.98 -4.3 489.08 34.41 515.5 87.19Z" fill="#F1C21B" fill-opacity="1.000000" fill-rule="evenodd"/>
</svg>
