<svg width="64.002518" height="64.810181" viewBox="0 0 64.0025 64.8102" fill="none" xmlns="http://www.w3.org/2000/svg" xmlns:xlink="http://www.w3.org/1999/xlink">
	<desc>
			Created with Pixso.
	</desc>
	<defs/>
	<path id="Vector" d="M45.87 28.89L51.92 22.77C52.64 23.01 53.39 23.17 54.19 23.17L56.64 23.17C60.7 23.17 64 19.83 64 15.72C64 11.6 60.7 8.26 56.64 8.26L55.83 8.26L55.83 7.45C55.83 3.33 52.54 0 48.48 0C44.41 0 41.12 3.33 41.12 7.45L41.12 9.93C41.12 10.74 41.28 11.5 41.51 12.23L35.47 18.35L45.87 28.89Z" fill="#124C5F" fill-opacity="1.000000" fill-rule="evenodd"/>
	<path id="Vector" d="M18.12 35.91L12.08 42.03C11.36 41.8 10.6 41.63 9.81 41.63L7.35 41.63C3.29 41.63 0 44.97 0 49.09C0 53.2 3.29 56.54 7.35 56.54L8.16 56.54L8.16 57.35C8.16 61.47 11.45 64.8 15.52 64.8C19.58 64.8 22.88 61.47 22.88 57.35L22.88 54.87C22.88 54.06 22.72 53.3 22.48 52.57L28.53 46.45L18.12 35.91Z" fill="#124C5F" fill-opacity="1.000000" fill-rule="evenodd"/>
	<path id="Vector" d="M56.64 41.63L54.19 41.63C53.39 41.63 52.64 41.8 51.92 42.03L22.48 12.23C22.72 11.5 22.88 10.74 22.88 9.93L22.88 7.45C22.88 3.33 19.58 0 15.52 0C11.46 0 8.16 3.33 8.16 7.45L8.16 8.26L7.35 8.26C3.29 8.26 0 11.6 0 15.71C0 19.83 3.29 23.17 7.35 23.17L9.81 23.17C10.6 23.17 11.36 23 12.08 22.77L41.51 52.57C41.27 53.3 41.11 54.06 41.11 54.87L41.11 57.35C41.11 61.47 44.41 64.81 48.47 64.81C52.54 64.81 55.83 61.47 55.83 57.35L55.83 56.54L56.64 56.54C60.7 56.54 64 53.2 64 49.09C64 44.97 60.7 41.63 56.64 41.63Z" fill="#124C5F" fill-opacity="1.000000" fill-rule="evenodd"/>
</svg>
