<svg width="30.000000" height="22.000000" viewBox="0 0 30 22" fill="none" xmlns="http://www.w3.org/2000/svg" xmlns:xlink="http://www.w3.org/1999/xlink">
	<desc>
			Created with Pixso.
	</desc>
	<defs/>
	<path id="Vector" d="M29.97 0.89C29.97 0.82 29.96 0.76 29.93 0.69C29.91 0.63 29.89 0.57 29.85 0.51C29.83 0.48 29.83 0.44 29.81 0.41C29.79 0.39 29.77 0.38 29.75 0.36C29.71 0.31 29.66 0.26 29.6 0.22C29.55 0.18 29.5 0.14 29.45 0.11C29.39 0.09 29.34 0.07 29.28 0.05C29.21 0.03 29.14 0.02 29.07 0.01C29.05 0.01 29.02 0 29 0L1 0C0.97 0 0.95 0.01 0.92 0.01C0.85 0.02 0.78 0.03 0.71 0.05C0.66 0.07 0.6 0.09 0.54 0.11C0.49 0.14 0.44 0.18 0.39 0.22C0.33 0.26 0.29 0.31 0.24 0.36C0.22 0.38 0.2 0.39 0.18 0.41C0.16 0.44 0.16 0.48 0.14 0.51C0.1 0.57 0.08 0.63 0.06 0.69C0.04 0.76 0.02 0.82 0.02 0.89C0.01 0.93 0 0.96 0 1L0 21C0 21.55 0.44 22 1 22L29 22C29.55 22 30 21.55 30 21L30 1C30 0.96 29.98 0.93 29.97 0.89ZM25.87 2L15 9.77L4.12 2L25.87 2ZM2 20L2 2.94L14.41 11.81C14.59 11.93 14.79 12 15 12C15.2 12 15.4 11.93 15.58 11.81L28 2.94L28 20L2 20Z" fill="#D2CFCF" fill-opacity="1.000000" fill-rule="evenodd"/>
</svg>
