<svg width="17.060730" height="30.000000" viewBox="0 0 17.0607 30" fill="none" xmlns="http://www.w3.org/2000/svg" xmlns:xlink="http://www.w3.org/1999/xlink">
	<desc>
			Created with Pixso.
	</desc>
	<defs/>
	<path id="Vector" d="M12.14 7.42C12.18 7.37 12.37 7.22 13.13 7.22L15.6 7.22C16.4 7.22 17.06 6.57 17.06 5.77L17.06 1.46C17.06 0.66 16.4 0 15.6 0L11.93 0C9.66 0 7.74 0.74 6.36 2.15C4.99 3.56 4.26 5.52 4.26 7.82L4.26 10.15L1.45 10.15C0.65 10.15 0 10.8 0 11.61L0 16.25C0 17.05 0.65 17.7 1.45 17.7L4.26 17.7L4.26 28.54C4.26 29.34 4.92 30 5.72 30L10.53 30C11.34 30 11.99 29.34 11.99 28.54L11.99 17.7L15.42 17.7C16.23 17.7 16.88 17.05 16.88 16.25L16.88 11.61C16.88 11.08 16.6 10.59 16.13 10.33C15.92 10.21 15.67 10.15 15.41 10.15L11.99 10.15L11.99 8.31C11.99 7.71 12.07 7.5 12.14 7.42Z" fill="#5B5B5B" fill-opacity="1.000000" fill-rule="evenodd"/>
</svg>
