<svg width="86.145996" height="93.773926" viewBox="0 0 86.146 93.7739" fill="none" xmlns="http://www.w3.org/2000/svg" xmlns:xlink="http://www.w3.org/1999/xlink">
	<desc>
			Created with Pixso.
	</desc>
	<defs/>
	<path id="Vector" d="M56.8 27.43C56.57 26.34 55.95 25.53 55.09 25.19C55.03 25.17 54.97 25.16 54.91 25.14C55.52 22.11 57.25 11.08 51.59 4.62C48.3 0.88 43.18 -0.6 36.37 0.21C36.25 0.16 36.11 0.13 35.97 0.12C30.62 -0.07 26.53 1.54 23.84 4.89C18.59 11.44 20.49 22.51 21.04 25.13C20.96 25.15 20.88 25.16 20.8 25.19C19.94 25.53 19.32 26.34 19.09 27.43C18.89 28.4 19 29.52 19.41 30.58C20.16 32.53 21.67 33.78 23.13 33.78C23.28 33.78 23.44 33.76 23.59 33.73C24.83 37.71 26.88 41.02 30.29 43.05L30.29 47.12L28.52 47.12L28.52 58.63L47.37 58.63L47.37 47.12L45.6 47.12L45.6 43.07C49.01 41.04 51.07 37.73 52.3 33.73C52.45 33.76 52.61 33.78 52.76 33.78C54.21 33.78 55.73 32.53 56.48 30.58C56.89 29.52 57 28.4 56.8 27.43ZM21.03 29.94C20.75 29.21 20.66 28.43 20.79 27.8C20.9 27.3 21.13 26.95 21.43 26.83C21.51 26.8 21.6 26.79 21.69 26.79C21.86 26.79 22.05 26.84 22.24 26.93C22.44 28.69 22.72 30.39 23.12 32.01C22.45 31.99 21.52 31.22 21.03 29.94ZM46.6 48.89C44.87 50.73 41.65 51.97 37.94 51.97C34.24 51.97 31.02 50.73 29.29 48.89L31.16 48.89C31.64 48.89 32.03 48.49 32.03 48.01L32.03 43.93C33.72 44.63 35.69 45.07 37.99 45.19C40.25 45.07 42.19 44.64 43.86 43.95L43.86 48.01C43.86 48.49 44.25 48.89 44.73 48.89L46.6 48.89ZM51.94 26C51.88 26.54 51.83 27.08 51.75 27.6C51.57 28.93 51.34 30.18 51.06 31.37C50.95 31.81 50.83 32.24 50.71 32.67C49.64 36.37 47.96 39.25 45.37 41.1C44.99 41.37 44.57 41.6 44.15 41.83C42.44 42.74 40.42 43.31 37.99 43.43C35.56 43.31 33.54 42.76 31.83 41.86C31.38 41.62 30.94 41.37 30.53 41.08C27.93 39.23 26.25 36.35 25.18 32.66C25.06 32.24 24.94 31.81 24.83 31.36C24.55 30.18 24.32 28.93 24.14 27.61C24.06 27.09 24.01 26.54 23.95 26C23.79 24.55 23.69 23.03 23.62 21.44C23.82 20.15 24.12 19.08 24.48 18.2C25.01 18.11 26.17 17.85 27.53 17.22C27.74 17.52 28.1 17.71 28.48 17.68C28.67 17.67 31.23 17.52 33.94 16.45C33.93 16.57 33.93 16.7 33.96 16.82C34.08 17.32 34.51 17.67 35.01 17.68C35.24 17.69 39.85 17.75 42.69 14.45C43.79 17.11 46.25 21.47 51.27 24.21L52.02 25.25C52 25.51 51.97 25.75 51.94 26ZM54.86 29.94C54.37 31.22 53.44 31.99 52.77 32.01C53.17 30.39 53.45 28.69 53.65 26.93C53.84 26.84 54.03 26.79 54.2 26.79C54.29 26.79 54.38 26.8 54.46 26.83C54.87 26.99 55.04 27.51 55.1 27.8C55.23 28.43 55.14 29.21 54.86 29.94ZM35.97 32.24L35.97 29.77C35.97 29.28 36.36 28.89 36.84 28.89C37.32 28.89 37.71 29.28 37.71 29.77L37.71 32.04L39.05 32.04C39.53 32.04 39.92 32.43 39.92 32.92C39.92 33.4 39.53 33.8 39.05 33.8L37.51 33.8C36.66 33.8 35.97 33.1 35.97 32.24ZM31.81 26.57C31.81 27.52 31.05 28.29 30.12 28.29C29.18 28.29 28.42 27.52 28.42 26.57C28.42 25.62 29.18 24.86 30.12 24.86C31.05 24.86 31.81 25.62 31.81 26.57ZM47.46 26.57C47.46 27.52 46.71 28.29 45.77 28.29C44.83 28.29 44.08 27.52 44.08 26.57C44.08 25.62 44.83 24.86 45.77 24.86C46.71 24.86 47.46 25.62 47.46 26.57ZM42.2 37.66C42.2 39.09 40 39.59 37.94 39.59C35.89 39.59 33.69 39.09 33.69 37.66C33.69 37.18 34.08 36.78 34.56 36.78C34.94 36.78 35.27 37.04 35.38 37.4C35.68 37.57 36.59 37.83 37.94 37.83C39.3 37.83 40.21 37.57 40.5 37.39C40.62 37.04 40.95 36.78 41.33 36.78C41.81 36.78 42.2 37.18 42.2 37.66ZM85.85 65.14C85.6 64.7 85.21 64.37 84.75 64.17C84.82 63.69 84.75 63.18 84.49 62.72C84.24 62.27 83.85 61.94 83.39 61.75C83.46 61.27 83.39 60.76 83.13 60.3C82.87 59.84 82.48 59.52 82.03 59.33C82.1 58.85 82.03 58.34 81.77 57.88C81.48 57.35 81 56.98 80.42 56.82C79.85 56.66 79.25 56.73 78.73 57.03L77.85 57.54C77.68 57.26 77.46 57.01 77.18 56.8L77.18 55.84L82.11 55.84C82.59 55.84 82.98 55.44 82.98 54.96C82.98 54.47 82.59 54.07 82.11 54.07L77.18 54.07L77.18 53.19L82.11 53.19C82.59 53.19 82.98 52.8 82.98 52.31C82.98 51.83 82.59 51.43 82.11 51.43L77.18 51.43L77.18 50.55L82.11 50.55C82.59 50.55 82.98 50.16 82.98 49.67C82.98 49.18 82.59 48.79 82.11 48.79L77.18 48.79L77.18 47.91L82.11 47.91C82.59 47.91 82.98 47.51 82.98 47.03C82.98 46.54 82.59 46.15 82.11 46.15L77.18 46.15L77.19 45.26L82.11 45.26C82.59 45.26 82.98 44.87 82.98 44.38C82.98 43.9 82.59 43.5 82.11 43.5L77.19 43.5C76.21 43.5 75.44 44.41 75.44 45.56L75.44 47.03L75.44 49.67L75.44 49.8C75.37 48.8 75 47.8 74.36 46.93C72.77 44.8 70.05 44.15 68.29 45.5C67.38 46.2 66.91 47.3 66.89 48.5C65.75 48.19 64.58 48.34 63.66 49.04C62.78 49.71 62.27 50.8 62.25 52.03C62.23 53.17 62.63 54.35 63.36 55.34C64.1 56.33 65.11 57.03 66.2 57.33C66.56 57.43 66.92 57.48 67.28 57.48C68.07 57.48 68.82 57.24 69.43 56.77C69.49 56.73 69.53 56.67 69.58 56.62L72.31 59.93L71.33 62.08C71.25 62.22 71.18 62.35 71.12 62.49L65.39 65.79L55.6 49.51C55.36 49.11 55.07 48.77 54.75 48.45C54.23 47.78 53.48 47.29 52.62 47.14C51.77 46.85 50.87 46.76 49.98 46.92L49.98 58.72C50.19 58.79 50.39 58.89 50.56 59.02C50.88 59.26 51.12 59.6 51.21 60.01L51.43 60.94L55.49 78.17L55.49 70.79L58.75 76.21C59.79 77.93 61.6 78.89 63.46 78.89C64.38 78.89 65.32 78.66 66.18 78.16L76.62 72.16C76.66 72.14 76.7 72.1 76.74 72.08C76.82 72.08 76.9 72.09 76.99 72.09C77.67 72.09 78.35 71.92 78.99 71.56L80.95 70.43L81.07 70.57C81.47 71.05 82.17 71.13 82.66 70.76L83.02 70.48L83.4 70.19L83.76 69.92C84.12 69.64 84.26 69.17 84.16 68.72L85.01 68.23C85.53 67.93 85.9 67.44 86.06 66.86C86.22 66.28 86.14 65.67 85.85 65.14ZM80.79 61.07L80.95 60.98C81.02 60.94 81.1 60.92 81.19 60.92C81.23 60.92 81.28 60.92 81.32 60.94C81.45 60.97 81.55 61.05 81.62 61.17C81.75 61.41 81.67 61.72 81.43 61.85L81.27 61.95L80.13 62.6L79.16 63.16C79.04 63.23 78.91 63.24 78.78 63.21C78.65 63.18 78.55 63.09 78.48 62.98C78.35 62.74 78.43 62.43 78.67 62.29L79.57 61.78L80.79 61.07ZM77.99 59.7L78.01 59.65C78.03 59.62 78.04 59.58 78.05 59.55C78.07 59.51 78.08 59.46 78.09 59.42L79.18 58.8L79.59 58.56C79.66 58.52 79.75 58.5 79.83 58.5C79.87 58.5 79.92 58.5 79.96 58.51C80.09 58.55 80.2 58.63 80.26 58.75C80.35 58.9 80.34 59.07 80.27 59.22C80.22 59.3 80.16 59.38 80.08 59.43L79.45 59.79L78.56 60.3L77.8 60.74C77.7 60.8 77.6 60.81 77.49 60.8L77.99 59.7ZM68.03 54.9C67.61 55.21 67.08 55.14 66.8 55.06C66.21 54.9 65.64 54.49 65.22 53.92C64.79 53.35 64.56 52.68 64.57 52.07C64.57 51.78 64.64 51.23 65.06 50.91C65.27 50.75 65.53 50.67 65.81 50.67C66.49 50.67 67.31 51.12 67.88 51.89C68.68 52.97 68.75 54.34 68.03 54.9ZM69.84 50.38C69.04 49.3 68.97 47.92 69.69 47.37C69.9 47.21 70.16 47.13 70.44 47.13C71.12 47.13 71.93 47.58 72.51 48.35C72.93 48.91 73.17 49.59 73.16 50.2C73.15 50.49 73.08 51.03 72.66 51.36C72.24 51.67 71.71 51.6 71.42 51.52C70.84 51.36 70.27 50.95 69.84 50.38ZM72.08 57.46C71.69 56.93 71.79 56.17 72.32 55.77C72.84 55.37 73.59 55.47 73.99 56C74.13 56.19 74.18 56.4 74.2 56.62C73.88 56.83 73.6 57.12 73.43 57.49L73.24 57.91C72.81 57.98 72.36 57.83 72.08 57.46ZM78.92 69.57L78.13 70.02C77.02 70.67 75.59 70.27 74.96 69.14L72.81 65.31C72.5 64.76 72.42 64.13 72.59 63.52L72.6 63.5L72.88 62.88L75.01 58.24C75.07 58.1 75.24 58.02 75.44 58C75.6 57.98 75.77 58 75.95 58.09C76.13 58.17 76.25 58.29 76.34 58.42C76.36 58.45 76.38 58.48 76.4 58.51C76.47 58.65 76.49 58.8 76.44 58.91L74.66 62.78L74.3 63.55C74.27 63.63 74.26 63.7 74.25 63.78C74.18 64.16 74.36 64.55 74.72 64.72C74.84 64.78 74.97 64.81 75.09 64.81C75.21 64.81 75.33 64.77 75.44 64.72L75.44 68.91C75.44 69.39 75.83 69.79 76.31 69.79C76.79 69.79 77.18 69.39 77.18 68.91L77.18 65.85L79.28 68.4L79.82 69.05L78.92 69.57ZM80.51 65.58C80.4 65.65 80.26 65.67 80.14 65.63C80.01 65.6 79.91 65.51 79.84 65.4C79.71 65.16 79.79 64.85 80.03 64.71L81.13 64.08L82.14 63.49L82.3 63.4C82.38 63.36 82.46 63.34 82.55 63.34C82.59 63.34 82.63 63.34 82.68 63.36C82.81 63.39 82.91 63.48 82.98 63.59C83.11 63.83 83.03 64.14 82.79 64.27L82.63 64.37L81.69 64.91L80.51 65.58ZM84.38 66.39C84.35 66.52 84.26 66.63 84.15 66.69C84.15 66.69 84.15 66.69 84.15 66.69L83.74 66.93L83.26 67.21L81.87 68.01C81.77 68.07 81.66 68.08 81.55 68.06C81.41 68.03 81.28 67.95 81.2 67.82C81.06 67.58 81.15 67.27 81.38 67.13L82.69 66.38L83.05 66.18L83.66 65.82C83.74 65.78 83.82 65.76 83.9 65.76C83.92 65.76 83.93 65.76 83.94 65.76C83.97 65.77 84.01 65.77 84.04 65.78C84.16 65.81 84.27 65.9 84.34 66.01C84.4 66.13 84.42 66.26 84.38 66.39ZM55.32 91.9L54.84 80.49C54.83 80.46 54.83 80.43 54.82 80.4L50.08 60.28C50.06 60.2 50.03 60.14 49.98 60.08C49.85 59.91 49.63 59.8 49.37 59.8L26.51 59.8C26.26 59.8 26.04 59.91 25.91 60.08C25.86 60.14 25.82 60.2 25.81 60.28L21.64 77.95L21.12 77.65L21 77.58C20.86 77.5 20.72 77.44 20.59 77.38L24.46 60.94L24.62 60.25L24.68 60.01C24.77 59.6 25.01 59.26 25.33 59.02C25.5 58.89 25.7 58.79 25.91 58.72L25.91 47.08L25.91 46.96C23.88 46.29 21.56 46.86 20.07 48.58L1.36 70.17C0.33 71.37 -0.16 72.96 0.04 74.54C0.23 76.12 1.08 77.54 2.38 78.44L13.11 85.93C13.44 86.17 13.8 86.34 14.16 86.49C14.6 87 15.12 87.44 15.71 87.77L19.49 89.9L20.06 90.22L20.4 90.41L20.6 90.53C20.61 90.53 20.62 90.53 20.63 90.54L20.57 91.9L20.52 93.16C20.51 93.33 20.59 93.46 20.66 93.54C20.8 93.69 21.01 93.77 21.23 93.77L54.65 93.77C54.88 93.77 55.09 93.69 55.22 93.54C55.3 93.46 55.38 93.33 55.37 93.16L55.32 91.9ZM13.73 72.81L20.4 65.12L20.4 77.29C20.18 77.2 19.96 77.13 19.74 77.07C19.61 76.96 19.5 76.84 19.36 76.74L13.73 72.81ZM26.79 83.25C26.71 83.39 26.52 83.45 26.39 83.37C26.39 83.37 26.39 83.37 26.39 83.37L22.43 81.13C22.21 81.01 21.95 81.02 21.72 81.11C21.51 81.19 21.32 81.35 21.21 81.55C21.09 81.75 21.07 81.99 21.13 82.22C21.19 82.44 21.34 82.63 21.54 82.75L21.55 82.75L26.28 85.42C26.37 85.47 26.41 85.56 26.42 85.6C26.43 85.65 26.45 85.74 26.39 85.83C26.34 85.92 26.26 85.96 26.22 85.97C26.17 85.98 26.08 86 25.99 85.95L21.36 83.34L21.25 83.27C21.16 83.22 21.05 83.19 20.95 83.19C20.76 83.17 20.57 83.23 20.4 83.33C20.38 83.34 20.37 83.35 20.35 83.36C20.22 83.44 20.11 83.55 20.03 83.69C19.92 83.89 19.89 84.13 19.95 84.36C20 84.55 20.13 84.71 20.29 84.82C20.32 84.84 20.34 84.87 20.36 84.89L20.4 84.91L20.44 84.93L20.86 85.17L24.32 87.12C24.41 87.17 24.45 87.25 24.46 87.3C24.47 87.34 24.49 87.43 24.43 87.53C24.38 87.62 24.3 87.66 24.26 87.67C24.21 87.68 24.12 87.7 24.03 87.64L20.83 85.84L20.4 85.59L20.26 85.52L20.02 85.38L19.69 85.2L19.63 85.16C19.36 85.01 18.94 85.07 18.67 85.24C18.41 85.4 18.25 85.7 18.26 86.01C18.26 86.17 18.32 86.32 18.4 86.46C18.48 86.58 18.58 86.68 18.71 86.75L19.61 87.26L20.17 87.58L20.4 87.71L20.74 87.9L21.73 88.46C21.83 88.52 21.86 88.6 21.87 88.64C21.89 88.69 21.9 88.78 21.85 88.87C21.77 89.01 21.58 89.07 21.45 88.99L20.71 88.57L20.4 88.4L20.14 88.25L19.58 87.93L17.51 86.76L16.56 86.23C15.75 85.77 15.11 85.04 14.76 84.17C14.29 83 14.35 81.71 14.91 80.73C15.59 79.54 16.9 78.66 18.36 78.66C18.95 78.66 19.56 78.81 20.17 79.13C20.19 79.14 20.21 79.15 20.22 79.16L20.4 79.26L20.7 79.43L21.22 79.73L21.54 79.91L26.67 82.84C26.77 82.89 26.8 82.98 26.81 83.02C26.83 83.07 26.84 83.16 26.79 83.25ZM48.3 78.88C48.27 80.43 46.8 81.1 46.05 79.91L45.29 78.71C45.09 79.42 44.78 80.09 44.39 80.7C44.39 80.79 44.4 80.89 44.4 80.98C44.4 84.97 41.51 88.21 37.94 88.21C34.38 88.21 31.49 84.97 31.49 80.98C31.49 80.89 31.5 80.79 31.5 80.7C31.11 80.09 30.8 79.42 30.6 78.71L29.84 79.91C29.09 81.1 27.62 80.43 27.59 78.88C27.58 78.16 27.55 77.41 27.51 76.67C27.34 74.09 30.81 72.88 32.38 72.46C33.77 71.45 35.75 70.99 37.94 70.99C40.14 70.99 42.12 71.45 43.51 72.46C45.08 72.88 48.55 74.09 48.38 76.67C48.34 77.41 48.31 78.16 48.3 78.88ZM35.3 84.24C35.3 83.16 36.48 82.27 37.94 82.27C39.41 82.27 40.59 83.16 40.59 84.24C40.59 85.33 39.41 86.21 37.94 86.21C36.48 86.21 35.3 85.33 35.3 84.24Z" fill="#124C5F" fill-opacity="1.000000" fill-rule="evenodd"/>
</svg>
