<svg width="81.739655" height="66.835449" viewBox="0 0 81.7397 66.8354" fill="none" xmlns="http://www.w3.org/2000/svg" xmlns:xlink="http://www.w3.org/1999/xlink">
	<desc>
			Created with Pixso.
	</desc>
	<defs/>
	<path id="Vector" d="M58.16 30.7C57.65 29.54 56.76 28.12 54.98 26.96C53.96 26.32 50.01 25.8 49.88 29.41C49.88 29.41 48.22 29.67 48.35 30.83C48.35 30.83 47.33 34.32 52.17 33.93C52.17 33.93 53.07 40.51 53.83 41.93C53.83 41.93 54.21 43.22 54.34 44.51L56.38 44.51L56.51 41.93C56.51 41.93 57.65 42.7 58.55 44.51L61.48 44.51C61.35 43.48 61.22 42.57 60.97 41.93C60.97 41.93 65.3 41.93 66.83 39.99C66.83 39.99 68.1 42.44 69.63 42.57L69.63 44.64L71.67 44.64C71.8 44.25 71.8 43.86 71.92 43.22C71.92 43.22 72.69 43.61 73.07 44.64L74.85 44.64C74.6 43.73 72.31 35.35 71.54 34.7C71.54 34.7 72.69 34.57 73.07 35.99C73.07 35.99 73.71 38.96 74.98 38.83C74.98 38.83 75.87 36.9 74.34 34.45C74.34 34.45 73.71 32.64 70.39 32.9L60.84 32.64C59.56 32.38 58.67 31.61 58.16 30.7Z" fill="#124C5F" fill-opacity="1.000000" fill-rule="evenodd"/>
	<path id="Vector" d="M46.57 20.77C47.33 19.74 47.21 18.19 46.19 17.28C45.17 16.51 43.64 16.64 42.75 17.67C40.33 20.77 35.99 21.28 32.94 19.99L31.28 24.64C36.5 26.7 42.87 25.67 46.57 20.77Z" fill="#124C5F" fill-opacity="1.000000" fill-rule="evenodd"/>
	<path id="Vector" d="M31.15 6.32C31.15 9.81 28.36 12.64 24.91 12.64C21.46 12.64 18.67 9.81 18.67 6.32C18.67 2.83 21.46 0 24.91 0C28.36 0 31.15 2.83 31.15 6.32Z" fill="#124C5F" fill-opacity="1.000000" fill-rule="evenodd"/>
	<path id="Vector" d="M28.6 45.93L23.25 43.73L26.44 34.57C19.3 30.57 16.75 24.25 16.63 23.86C15.86 21.93 16.75 19.87 18.67 19.09C20.58 18.32 22.61 19.22 23.38 21.16C23.51 21.41 25.04 24.77 28.99 27.48L31.41 20.77C31.66 19.99 31.53 19.22 31.02 18.57C26.44 13.41 21.09 11.48 15.22 13.28C13.57 13.8 12.42 15.09 12.04 16.77L6.94 43.61C6.94 43.73 6.94 43.73 6.94 43.86C6.94 43.99 6.94 44.25 6.94 44.38L7.2 56.64L4.39 55.99C2.48 55.61 0.45 56.9 0.06 58.83C-0.32 60.77 0.95 62.83 2.87 63.22L10.13 64.77C11.28 65.02 12.29 64.77 13.19 63.99C14.08 63.22 14.59 62.19 14.46 61.02L14.21 48.12L23.51 51.86L23.51 63.09C23.51 65.15 25.16 66.83 27.2 66.83C29.24 66.83 30.9 65.15 30.9 63.09L30.9 49.41C31.02 47.86 30 46.57 28.6 45.93Z" fill="#124C5F" fill-opacity="1.000000" fill-rule="evenodd"/>
	<path id="Vector" d="M38.41 31.86C26.31 30.96 22.49 22.06 22.36 21.67C21.85 20.38 20.45 19.86 19.17 20.38C17.9 20.9 17.39 22.32 17.9 23.61C18.16 24.12 23 35.74 38.16 36.9C39.56 37.03 40.71 35.99 40.71 34.57C40.71 33.15 39.82 31.99 38.41 31.86Z" fill="#124C5F" fill-opacity="1.000000" fill-rule="evenodd"/>
	<path id="Vector" d="M60.2 15.09C57.65 15.61 55.74 17.93 55.74 20.64L67.08 20.64C67.08 17.67 64.92 15.35 62.11 14.96C58.29 10.7 52.17 12.38 47.33 16.64C47.59 16.9 47.84 17.28 48.1 17.67C51.54 14.45 56.25 12.25 60.2 15.09Z" fill="#124C5F" fill-opacity="1.000000" fill-rule="evenodd"/>
	<path id="Vector" d="M79.57 45.67L43.77 45.67C42.75 45.67 41.85 46.57 41.85 47.61C41.85 48.64 42.75 49.54 43.77 49.54L44.15 49.54L44.15 52.77C44.15 57.8 48.23 61.93 53.19 61.93L70.39 61.93C75.36 61.93 79.44 57.8 79.44 52.77L79.44 49.54L79.82 49.54C80.84 49.54 81.73 48.64 81.73 47.61C81.48 46.44 80.59 45.67 79.57 45.67Z" fill="#124C5F" fill-opacity="1.000000" fill-rule="evenodd"/>
	<path id="Vector" d="M56.76 23.22L56.89 22.06C56.89 21.67 56.76 21.41 56.38 21.41C56 21.41 55.74 21.54 55.74 21.93L55.61 23.09C55.61 23.48 55.74 23.74 56.12 23.74C56.38 23.74 56.63 23.48 56.76 23.22Z" fill="#124C5F" fill-opacity="1.000000" fill-rule="evenodd"/>
	<path id="Vector" d="M55.23 24.77L55.11 25.93C55.11 26.32 55.23 26.57 55.61 26.57C56 26.57 56.25 26.45 56.25 26.06L56.38 24.9C56.38 24.51 56.25 24.25 55.87 24.25C55.61 24.25 55.36 24.51 55.23 24.77Z" fill="#124C5F" fill-opacity="1.000000" fill-rule="evenodd"/>
	<path id="Vector" d="M59.56 23.74C59.95 23.74 60.2 23.48 60.2 23.09L60.2 21.8C60.2 21.41 59.95 21.16 59.56 21.16C59.18 21.16 58.93 21.41 58.93 21.8L58.93 23.09C58.93 23.35 59.31 23.74 59.56 23.74Z" fill="#124C5F" fill-opacity="1.000000" fill-rule="evenodd"/>
	<path id="Vector" d="M58.8 26.06C58.8 26.45 59.06 26.7 59.44 26.7C59.82 26.7 60.07 26.45 60.07 26.06L60.07 24.77C60.07 24.38 59.82 24.12 59.44 24.12C59.06 24.12 58.8 24.38 58.8 24.77L58.8 26.06Z" fill="#124C5F" fill-opacity="1.000000" fill-rule="evenodd"/>
	<path id="Vector" d="M63 21.28C62.62 21.28 62.37 21.54 62.37 21.93L62.37 23.22C62.37 23.61 62.62 23.86 63 23.86C63.39 23.86 63.64 23.61 63.64 23.22L63.64 21.93C63.64 21.54 63.39 21.28 63 21.28Z" fill="#124C5F" fill-opacity="1.000000" fill-rule="evenodd"/>
	<path id="Vector" d="M62.62 24.9L62.62 26.19C62.62 26.57 62.88 26.83 63.26 26.83C63.64 26.83 63.9 26.57 63.9 26.19L63.9 24.9C63.9 24.51 63.64 24.25 63.26 24.25C62.75 24.25 62.5 24.51 62.62 24.9Z" fill="#124C5F" fill-opacity="1.000000" fill-rule="evenodd"/>
	<path id="Vector" d="M66.32 21.28C65.94 21.28 65.81 21.67 65.81 21.93L65.94 23.09C65.94 23.35 66.19 23.61 66.57 23.61C66.95 23.61 67.21 23.22 67.21 22.83L66.95 21.8C66.95 21.41 66.57 21.16 66.32 21.28Z" fill="#124C5F" fill-opacity="1.000000" fill-rule="evenodd"/>
	<path id="Vector" d="M66.19 25.03L66.32 26.19C66.32 26.45 66.7 26.7 66.95 26.7C67.34 26.7 67.59 26.32 67.46 26.06L67.46 24.77C67.46 24.38 67.08 24.25 66.83 24.25C66.45 24.38 66.19 24.64 66.19 25.03Z" fill="#124C5F" fill-opacity="1.000000" fill-rule="evenodd"/>
</svg>
