<svg width="29.000000" height="36.000000" viewBox="0 0 29 36" fill="none" xmlns="http://www.w3.org/2000/svg" xmlns:xlink="http://www.w3.org/1999/xlink">
	<desc>
			Created with Pixso.
	</desc>
	<defs>
		<clipPath id="clip2_358">
			<rect id="noun_instagram_3350460 1" width="29.000000" height="36.000000" fill="white" fill-opacity="0"/>
		</clipPath>
	</defs>
	<rect id="noun_instagram_3350460 1" width="29.000000" height="36.000000" fill="#FFFFFF" fill-opacity="0"/>
	<g clip-path="url(#clip2_358)">
		<path id="Vector" d="M24.16 0L4.83 0C3.55 0 2.32 0.5 1.41 1.4C0.5 2.3 0 3.52 0 4.8L0 24C0 25.27 0.5 26.49 1.41 27.39C2.32 28.29 3.55 28.8 4.83 28.8L24.16 28.8C25.44 28.8 26.67 28.29 27.58 27.39C28.49 26.49 29 25.27 29 24L29 4.8C29 3.52 28.49 2.3 27.58 1.4C26.67 0.5 25.44 0 24.16 0L24.16 0ZM26.58 24C26.58 24.63 26.32 25.24 25.87 25.69C25.42 26.14 24.8 26.39 24.16 26.39L4.83 26.39C4.19 26.39 3.57 26.14 3.12 25.69C2.67 25.24 2.41 24.63 2.41 24L2.41 4.8C2.41 4.16 2.67 3.55 3.12 3.1C3.57 2.65 4.19 2.39 4.83 2.39L24.16 2.39C24.8 2.39 25.42 2.65 25.87 3.1C26.32 3.55 26.58 4.16 26.58 4.8L26.58 24Z" fill="#5B5B5B" fill-opacity="1.000000" fill-rule="evenodd"/>
		<path id="Vector" d="M14.5 7.2C13.06 7.2 11.66 7.62 10.47 8.41C9.27 9.2 8.35 10.32 7.8 11.64C7.25 12.96 7.1 14.4 7.38 15.8C7.66 17.2 8.35 18.48 9.37 19.49C10.38 20.49 11.67 21.18 13.08 21.46C14.49 21.73 15.94 21.59 17.27 21.05C18.59 20.5 19.73 19.58 20.52 18.4C21.32 17.21 21.75 15.82 21.75 14.4C21.75 12.49 20.98 10.65 19.62 9.3C18.26 7.95 16.42 7.2 14.5 7.2ZM14.5 19.2C13.54 19.2 12.6 18.91 11.81 18.39C11.01 17.86 10.4 17.11 10.03 16.23C9.66 15.36 9.57 14.39 9.75 13.46C9.94 12.53 10.4 11.67 11.08 11C11.75 10.33 12.61 9.87 13.55 9.69C14.49 9.5 15.46 9.6 16.34 9.96C17.23 10.32 17.98 10.94 18.51 11.73C19.04 12.52 19.33 13.45 19.33 14.4C19.33 15.67 18.82 16.89 17.91 17.79C17.01 18.69 15.78 19.2 14.5 19.2Z" fill="#5B5B5B" fill-opacity="1.000000" fill-rule="evenodd"/>
		<path id="Vector" d="M24.16 6.59C24.16 7.59 23.35 8.39 22.35 8.39C21.35 8.39 20.54 7.59 20.54 6.59C20.54 5.6 21.35 4.79 22.35 4.79C23.35 4.79 24.16 5.6 24.16 6.59Z" fill="#5B5B5B" fill-opacity="1.000000" fill-rule="evenodd"/>
		<path id="Created by Mas Dhimas" d="M46.27 42.33C46.27 42.49 46.14 42.61 45.98 42.61C45.81 42.61 45.68 42.49 45.68 42.33C45.68 42.17 45.81 42.04 45.98 42.04C46.14 42.04 46.27 42.17 46.27 42.33ZM1.9 42.11C2.63 42.11 3.23 42.55 3.36 43.29L2.92 43.29C2.81 42.79 2.38 42.52 1.9 42.52C1.24 42.52 0.72 43.03 0.72 43.98C0.72 44.92 1.24 45.43 1.9 45.43C2.38 45.43 2.81 45.16 2.92 44.66L3.36 44.66C3.23 45.4 2.63 45.84 1.9 45.84C0.97 45.84 0.29 45.13 0.29 43.98C0.29 42.83 0.97 42.11 1.9 42.11ZM18.05 45.38C17.96 45.53 17.78 45.85 17.25 45.85C16.57 45.85 16.1 45.31 16.1 44.44C16.1 43.58 16.57 43.03 17.26 43.03C17.79 43.03 17.96 43.36 18.05 43.5L18.09 43.5L18.09 42.16L18.5 42.16L18.5 45.79L18.1 45.79L18.1 45.38L18.05 45.38ZM21.19 45.79L20.79 45.79L20.79 42.16L21.21 42.16L21.21 43.5L21.24 43.5C21.34 43.36 21.5 43.03 22.03 43.03C22.72 43.03 23.2 43.58 23.2 44.44C23.2 45.31 22.72 45.85 22.04 45.85C21.51 45.85 21.34 45.53 21.24 45.38L21.19 45.38L21.19 45.79ZM27.99 45.79L27.99 42.16L28.51 42.16L29.75 45.18L29.79 45.18L31.02 42.16L31.55 42.16L31.55 45.79L31.14 45.79L31.14 43.03L31.1 43.03L29.97 45.79L29.57 45.79L28.43 43.03L28.4 43.03L28.4 45.79L27.99 45.79ZM42.13 43.97C42.13 45.11 41.5 45.79 40.39 45.79L39.27 45.79L39.27 42.16L40.44 42.16C41.5 42.16 42.13 42.84 42.13 43.97ZM43.94 43.41C43.53 43.41 43.23 43.68 43.23 44.15L43.23 45.79L42.81 45.79L42.81 42.16L43.23 42.16L43.23 43.49L43.26 43.49C43.39 43.21 43.63 43.03 44.06 43.03C44.62 43.03 44.99 43.36 44.99 44.06L44.99 45.79L44.58 45.79L44.58 44.09C44.58 43.66 44.34 43.41 43.94 43.41ZM12.13 43.07L12.71 43.07L12.71 43.42L12.13 43.42L12.13 45.01C12.13 45.37 12.3 45.42 12.49 45.42C12.58 45.42 12.64 45.41 12.67 45.4L12.76 45.78C12.7 45.8 12.6 45.83 12.45 45.83C12.09 45.83 11.71 45.6 11.71 45.13L11.71 43.42L11.29 43.42L11.29 43.07L11.71 43.07L11.71 42.41L12.13 42.41L12.13 43.07ZM39.71 42.55L39.71 45.4L40.36 45.4C41.27 45.4 41.7 44.86 41.7 43.97C41.7 43.09 41.27 42.55 40.41 42.55L39.71 42.55ZM4.43 45.79L4.01 45.79L4.01 43.07L4.42 43.07L4.42 43.48L4.45 43.48C4.55 43.21 4.83 43.03 5.16 43.03C5.22 43.03 5.33 43.03 5.38 43.03L5.38 43.46C5.35 43.45 5.23 43.43 5.12 43.43C4.73 43.43 4.43 43.7 4.43 44.07L4.43 45.79ZM8.02 45.16C7.89 45.58 7.49 45.85 6.93 45.85C6.15 45.85 5.66 45.29 5.66 44.45C5.66 43.61 6.15 43.03 6.89 43.03C7.46 43.03 8.06 43.38 8.06 44.4L8.06 44.57L6.08 44.57C6.1 45.16 6.44 45.48 6.93 45.48C7.26 45.48 7.51 45.33 7.62 45.05L8.02 45.16ZM10.31 45.42C10.23 45.6 9.98 45.86 9.51 45.86C8.99 45.86 8.57 45.55 8.57 45.02C8.57 44.4 9.13 44.28 9.63 44.22C10.13 44.15 10.34 44.17 10.34 43.97L10.34 43.96C10.34 43.61 10.15 43.4 9.76 43.4C9.36 43.4 9.14 43.61 9.05 43.81L8.65 43.67C8.87 43.17 9.33 43.03 9.75 43.03C10.1 43.03 10.76 43.13 10.76 44L10.76 45.79L10.34 45.79L10.34 45.42L10.31 45.42ZM15.54 45.16C15.41 45.58 15.01 45.85 14.46 45.85C13.67 45.85 13.18 45.29 13.18 44.45C13.18 43.61 13.67 43.03 14.41 43.03C14.98 43.03 15.58 43.38 15.58 44.4L15.58 44.57L13.6 44.57C13.62 45.16 13.96 45.48 14.46 45.48C14.78 45.48 15.03 45.33 15.14 45.05L15.54 45.16ZM33.99 45.42C33.9 45.6 33.65 45.86 33.18 45.86C32.66 45.86 32.25 45.55 32.25 45.02C32.25 44.4 32.8 44.28 33.3 44.22C33.8 44.15 34.01 44.17 34.01 43.97L34.01 43.96C34.01 43.61 33.82 43.4 33.43 43.4C33.03 43.4 32.81 43.61 32.72 43.81L32.32 43.67C32.54 43.17 33.01 43.03 33.42 43.03C33.77 43.03 34.43 43.13 34.43 44L34.43 45.79L34.01 45.79L34.01 45.42L33.99 45.42ZM36.16 43.03C36.7 43.03 36.99 43.29 37.13 43.68L36.75 43.78C36.68 43.6 36.53 43.39 36.16 43.39C35.83 43.39 35.58 43.56 35.58 43.8C35.58 44.01 35.72 44.12 36.05 44.2L36.45 44.3C36.94 44.42 37.17 44.65 37.17 45.03C37.17 45.51 36.74 45.85 36.11 45.85C35.55 45.85 35.17 45.6 35.07 45.14L35.47 45.04C35.55 45.33 35.76 45.48 36.1 45.48C36.49 45.48 36.74 45.29 36.74 45.06C36.74 44.87 36.61 44.74 36.34 44.67L35.88 44.57C35.38 44.45 35.16 44.2 35.16 43.82C35.16 43.36 35.58 43.03 36.16 43.03ZM47.37 45.79L46.95 45.79L46.95 43.07L47.35 43.07L47.35 43.49L47.39 43.49C47.5 43.2 47.76 43.03 48.12 43.03C48.48 43.03 48.72 43.2 48.85 43.49L48.88 43.49C49.02 43.21 49.31 43.03 49.7 43.03C50.18 43.03 50.53 43.33 50.53 43.97L50.53 45.79L50.11 45.79L50.11 43.97C50.11 43.57 49.85 43.41 49.55 43.41C49.17 43.41 48.95 43.67 48.95 44.02L48.95 45.79L48.53 45.79L48.53 43.93C48.53 43.62 48.3 43.41 47.99 43.41C47.66 43.41 47.37 43.69 47.37 44.09L47.37 45.79ZM52.91 45.42C52.82 45.6 52.57 45.86 52.1 45.86C51.58 45.86 51.17 45.55 51.17 45.02C51.17 44.4 51.72 44.28 52.22 44.22C52.72 44.15 52.93 44.17 52.93 43.97L52.93 43.96C52.93 43.61 52.74 43.4 52.35 43.4C51.95 43.4 51.74 43.61 51.64 43.81L51.24 43.67C51.46 43.17 51.93 43.03 52.34 43.03C52.69 43.03 53.35 43.13 53.35 44L53.35 45.79L52.93 45.79L52.93 45.42L52.91 45.42ZM55.08 43.03C55.62 43.03 55.91 43.29 56.05 43.68L55.67 43.78C55.6 43.6 55.45 43.39 55.08 43.39C54.75 43.39 54.5 43.56 54.5 43.8C54.5 44.01 54.64 44.12 54.97 44.2L55.37 44.3C55.86 44.42 56.1 44.65 56.1 45.03C56.1 45.51 55.66 45.85 55.03 45.85C54.47 45.85 54.09 45.6 53.99 45.14L54.39 45.04C54.47 45.33 54.68 45.48 55.02 45.48C55.41 45.48 55.66 45.29 55.66 45.06C55.66 44.87 55.53 44.74 55.26 44.67L54.8 44.57C54.3 44.45 54.08 44.2 54.08 43.82C54.08 43.36 54.5 43.03 55.08 43.03ZM24.81 46.19C24.65 46.62 24.39 46.82 24.01 46.82C23.87 46.82 23.75 46.79 23.7 46.77L23.81 46.4C24.11 46.48 24.3 46.44 24.46 46.02L24.53 45.81L23.53 43.07L23.98 43.07L24.73 45.24L24.76 45.24L25.51 43.07L25.97 43.07L24.81 46.19ZM46.18 45.79L45.76 45.79L45.76 43.07L46.18 43.07L46.18 45.79ZM6.89 43.41C6.41 43.41 6.11 43.79 6.08 44.21L7.64 44.21C7.64 43.75 7.35 43.41 6.89 43.41ZM14.41 43.41C13.93 43.41 13.63 43.79 13.6 44.21L15.16 44.21C15.16 43.75 14.87 43.41 14.41 43.41ZM16.52 44.43C16.52 45.01 16.79 45.48 17.31 45.48C17.81 45.48 18.09 45.05 18.09 44.43C18.09 43.82 17.82 43.41 17.31 43.41C16.78 43.41 16.52 43.86 16.52 44.43ZM21.98 43.41C21.47 43.41 21.2 43.82 21.2 44.43C21.2 45.05 21.48 45.48 21.98 45.48C22.51 45.48 22.78 45.01 22.78 44.43C22.78 43.86 22.52 43.41 21.98 43.41ZM8.99 45.04C8.99 45.33 9.24 45.48 9.57 45.48C10.07 45.48 10.34 45.15 10.34 44.81L10.34 44.42C10.26 44.51 9.79 44.56 9.61 44.58C9.28 44.62 8.99 44.72 8.99 45.04ZM32.67 45.04C32.67 45.33 32.91 45.48 33.24 45.48C33.74 45.48 34.01 45.15 34.01 44.81L34.01 44.42C33.94 44.51 33.46 44.56 33.28 44.58C32.96 44.62 32.67 44.72 32.67 45.04ZM51.59 45.04C51.59 45.33 51.83 45.48 52.16 45.48C52.66 45.48 52.93 45.15 52.93 44.81L52.93 44.42C52.86 44.51 52.38 44.56 52.2 44.58C51.88 44.62 51.59 44.72 51.59 45.04Z" fill="#5B5B5B" fill-opacity="1.000000" fill-rule="evenodd"/>
		<path id="from the Noun Project" d="M0.98 49.07L1.59 49.07L1.59 49.42L0.98 49.42L0.98 51.79L0.56 51.79L0.56 49.42L0.12 49.42L0.12 49.07L0.56 49.07L0.56 48.69C0.56 48.22 0.94 47.99 1.33 47.99C1.54 47.99 1.66 48.03 1.73 48.06L1.61 48.42C1.56 48.41 1.49 48.38 1.37 48.38C1.1 48.38 0.98 48.52 0.98 48.79L0.98 49.07ZM44.26 48.33C44.26 48.49 44.13 48.61 43.97 48.61C43.8 48.61 43.67 48.49 43.67 48.33C43.67 48.17 43.8 48.04 43.97 48.04C44.13 48.04 44.26 48.17 44.26 48.33ZM15.71 49.41C15.29 49.41 14.99 49.68 14.99 50.15L14.99 51.79L14.57 51.79L14.57 48.16L14.99 48.16L14.99 49.49L15.02 49.49C15.15 49.21 15.4 49.03 15.83 49.03C16.38 49.03 16.76 49.36 16.76 50.06L16.76 51.79L16.34 51.79L16.34 50.09C16.34 49.66 16.1 49.41 15.71 49.41ZM24.35 48.16L24.78 48.16L24.78 51.79L24.36 51.79L22.37 48.94L22.34 48.94L22.34 51.79L21.9 51.79L21.9 48.16L22.32 48.16L24.31 51.02L24.35 51.02L24.35 48.16ZM36.32 51.79L35.88 51.79L35.88 48.16L37.11 48.16C37.97 48.16 38.35 48.67 38.35 49.31C38.35 49.95 37.97 50.47 37.12 50.47L36.32 50.47L36.32 51.79ZM13.3 49.07L13.88 49.07L13.88 49.42L13.3 49.42L13.3 51.01C13.3 51.37 13.47 51.42 13.66 51.42C13.75 51.42 13.81 51.41 13.84 51.4L13.93 51.78C13.87 51.8 13.77 51.83 13.62 51.83C13.26 51.83 12.88 51.6 12.88 51.13L12.88 49.42L12.47 49.42L12.47 49.07L12.88 49.07L12.88 48.41L13.3 48.41L13.3 49.07ZM51.25 49.07L51.83 49.07L51.83 49.42L51.25 49.42L51.25 51.01C51.25 51.37 51.43 51.42 51.61 51.42C51.71 51.42 51.76 51.41 51.8 51.4L51.88 51.78C51.83 51.8 51.73 51.83 51.57 51.83C51.22 51.83 50.83 51.6 50.83 51.13L50.83 49.42L50.42 49.42L50.42 49.07L50.83 49.07L50.83 48.41L51.25 48.41L51.25 49.07ZM36.32 48.55L36.32 50.08L37.1 50.08C37.69 50.08 37.91 49.75 37.91 49.31C37.91 48.87 37.69 48.55 37.1 48.55L36.32 48.55ZM2.6 51.79L2.18 51.79L2.18 49.07L2.59 49.07L2.59 49.48L2.62 49.48C2.72 49.21 3 49.03 3.33 49.03C3.39 49.03 3.5 49.03 3.55 49.03L3.55 49.46C3.52 49.45 3.4 49.43 3.29 49.43C2.89 49.43 2.6 49.7 2.6 50.07L2.6 51.79ZM39.42 51.79L39 51.79L39 49.07L39.41 49.07L39.41 49.48L39.43 49.48C39.53 49.21 39.82 49.03 40.14 49.03C40.21 49.03 40.32 49.03 40.36 49.03L40.36 49.46C40.34 49.45 40.22 49.43 40.11 49.43C39.71 49.43 39.42 49.7 39.42 50.07L39.42 51.79ZM6.3 50.45C6.3 51.29 5.8 51.85 5.07 51.85C4.33 51.85 3.83 51.29 3.83 50.45C3.83 49.59 4.33 49.03 5.07 49.03C5.8 49.03 6.3 49.59 6.3 50.45ZM7.36 51.79L6.94 51.79L6.94 49.07L7.35 49.07L7.35 49.49L7.38 49.49C7.5 49.2 7.76 49.03 8.11 49.03C8.47 49.03 8.71 49.2 8.84 49.49L8.87 49.49C9.01 49.21 9.3 49.03 9.69 49.03C10.18 49.03 10.52 49.33 10.52 49.97L10.52 51.79L10.1 51.79L10.1 49.97C10.1 49.57 9.85 49.41 9.55 49.41C9.16 49.41 8.94 49.67 8.94 50.02L8.94 51.79L8.52 51.79L8.52 49.93C8.52 49.62 8.3 49.41 7.98 49.41C7.65 49.41 7.36 49.69 7.36 50.09L7.36 51.79ZM19.75 51.16C19.63 51.58 19.22 51.85 18.67 51.85C17.88 51.85 17.4 51.29 17.4 50.45C17.4 49.61 17.89 49.03 18.62 49.03C19.19 49.03 19.8 49.38 19.8 50.4L19.8 50.57L17.82 50.57C17.84 51.16 18.18 51.48 18.67 51.48C19 51.48 19.24 51.33 19.35 51.05L19.75 51.16ZM27.95 50.45C27.95 51.29 27.45 51.85 26.71 51.85C25.98 51.85 25.48 51.29 25.48 50.45C25.48 49.59 25.98 49.03 26.71 49.03C27.45 49.03 27.95 49.59 27.95 50.45ZM32.61 49.41C32.21 49.41 31.91 49.68 31.91 50.15L31.91 51.79L31.49 51.79L31.49 49.07L31.9 49.07L31.9 49.49L31.93 49.49C32.06 49.22 32.32 49.03 32.73 49.03C33.28 49.03 33.65 49.37 33.65 50.06L33.65 51.79L33.23 51.79L33.23 50.09C33.23 49.66 33 49.41 32.61 49.41ZM43.12 50.45C43.12 51.29 42.62 51.85 41.88 51.85C41.15 51.85 40.65 51.29 40.65 50.45C40.65 49.59 41.15 49.03 41.88 49.03C42.62 49.03 43.12 49.59 43.12 50.45ZM47.18 51.16C47.05 51.58 46.64 51.85 46.09 51.85C45.3 51.85 44.82 51.29 44.82 50.45C44.82 49.61 45.31 49.03 46.05 49.03C46.61 49.03 47.22 49.38 47.22 50.4L47.22 50.57L45.24 50.57C45.26 51.16 45.6 51.48 46.09 51.48C46.42 51.48 46.66 51.33 46.77 51.05L47.18 51.16ZM50.04 51C49.97 51.48 49.57 51.85 48.97 51.85C48.2 51.85 47.73 51.26 47.73 50.45C47.73 49.61 48.22 49.03 48.96 49.03C49.53 49.03 49.97 49.37 50.04 49.88L49.62 49.88C49.56 49.64 49.33 49.41 48.97 49.41C48.47 49.41 48.15 49.81 48.15 50.43C48.15 51.06 48.47 51.48 48.97 51.48C49.29 51.48 49.54 51.3 49.62 51L50.04 51ZM29.6 51.42C29.92 51.42 30.31 51.19 30.31 50.68L30.31 49.07L30.73 49.07L30.73 51.79L30.31 51.79L30.31 51.33L30.28 51.33C30.15 51.61 29.88 51.83 29.47 51.83C28.96 51.83 28.59 51.5 28.59 50.8L28.59 49.07L29.01 49.07L29.01 50.77C29.01 51.17 29.26 51.42 29.6 51.42ZM43.76 51.99L43.76 49.07L44.18 49.07L44.18 51.99C44.18 52.5 43.92 52.82 43.4 52.82L43.31 52.82L43.31 52.43L43.39 52.43C43.65 52.43 43.76 52.27 43.76 51.99ZM4.25 50.45C4.25 50.99 4.5 51.48 5.07 51.48C5.63 51.48 5.88 50.99 5.88 50.45C5.88 49.9 5.63 49.41 5.07 49.41C4.5 49.41 4.25 49.9 4.25 50.45ZM18.62 49.41C18.14 49.41 17.84 49.79 17.82 50.21L19.37 50.21C19.37 49.75 19.08 49.41 18.62 49.41ZM25.9 50.45C25.9 50.99 26.15 51.48 26.71 51.48C27.27 51.48 27.53 50.99 27.53 50.45C27.53 49.9 27.27 49.41 26.71 49.41C26.15 49.41 25.9 49.9 25.9 50.45ZM41.07 50.45C41.07 50.99 41.32 51.48 41.88 51.48C42.44 51.48 42.7 50.99 42.7 50.45C42.7 49.9 42.44 49.41 41.88 49.41C41.32 49.41 41.07 49.9 41.07 50.45ZM46.05 49.41C45.57 49.41 45.27 49.79 45.24 50.21L46.79 50.21C46.79 49.75 46.5 49.41 46.05 49.41Z" fill="#5B5B5B" fill-opacity="1.000000" fill-rule="evenodd"/>
	</g>
</svg>
