<svg width="1670.840332" height="764.222046" viewBox="0 0 1670.84 764.222" fill="none" xmlns="http://www.w3.org/2000/svg" xmlns:xlink="http://www.w3.org/1999/xlink">
	<desc>
			Created with Pixso.
	</desc>
	<defs/>
	<path id="Vector 1" d="M222.4 0L220.16 11.75C217.82 11.74 215.5 11.74 213.2 11.74C219.08 4.51 222.4 0 222.4 0ZM3.16 67.56C-18.12 25.49 69.64 11.85 213.2 11.74C179.52 53.15 61.93 183.75 3.16 67.56ZM220.16 11.75C344.06 12.02 507.9 21.95 678.69 32.3C954.25 49.01 1247.91 66.81 1421.13 46.91C1698.27 15.09 1658.74 253.26 1633.86 403.14C1622.07 474.2 1613.57 525.41 1643.69 518.57C1737.33 497.29 1582.39 784.55 1276.68 763.07C1147.96 754.02 973.8 707.09 815.14 664.33C597.02 605.54 408.21 554.66 407.03 620.98C404.99 735.54 107.96 599.7 107.96 599.7L220.16 11.75Z" fill="#FFF1B2" fill-opacity="0.740000" fill-rule="evenodd"/>
</svg>
