<svg width="64.207520" height="61.133301" viewBox="0 0 64.2075 61.1333" fill="none" xmlns="http://www.w3.org/2000/svg" xmlns:xlink="http://www.w3.org/1999/xlink">
	<desc>
			Created with Pixso.
	</desc>
	<defs>
		<clipPath id="clip2_370">
			<rect id="github" width="34.999992" height="35.000008" transform="translate(13.766724 13.766357)" fill="white" fill-opacity="0"/>
		</clipPath>
	</defs>
	<path id="Vector" d="M42.64 1.39L59.73 18.49L59.73 42.64L42.64 59.73L18.49 59.73L1.4 42.64L1.4 18.49L18.49 1.39L42.64 1.39Z" stroke="#FFAA00" stroke-opacity="1.000000" stroke-width="2.800000" stroke-linejoin="round"/>
	<path id="Fill 102" d="M59.75 39.59C59.3 39.59 58.87 39.66 58.46 39.78C57.71 36.64 54.89 34.3 51.52 34.3C48.17 34.3 45.36 36.61 44.59 39.72C44.24 39.64 43.88 39.59 43.51 39.59C41.05 39.59 39.06 41.58 39.06 44.04C39.06 46.5 41.05 48.49 43.51 48.49L50.43 48.49C50.78 48.54 51.15 48.57 51.52 48.57C51.89 48.57 52.25 48.54 52.61 48.49L59.75 48.49C62.21 48.49 64.2 46.5 64.2 44.04C64.2 41.58 62.21 39.59 59.75 39.59Z" fill="#B0D6F4" fill-opacity="1.000000" fill-rule="evenodd"/>
	<rect id="github" width="34.999992" height="35.000008" transform="translate(13.766724 13.766357)" fill="#FFFFFF" fill-opacity="0"/>
	<g clip-path="url(#clip2_370)">
		<path id="Vector" d="M16.68 37.09L26.89 41.47C19.6 43.66 19.6 37.82 16.68 37.09ZM37.1 45.84L37.1 40.2C37.15 39.51 37.06 38.81 36.82 38.15C36.58 37.49 36.21 36.9 35.72 36.39C40.3 35.88 45.12 34.15 45.12 26.19C45.12 24.15 44.33 22.19 42.93 20.72C43.59 18.94 43.55 16.97 42.8 15.22C42.8 15.22 41.08 14.71 37.1 17.38C33.75 16.47 30.23 16.47 26.89 17.38C22.91 14.71 21.18 15.22 21.18 15.22C20.44 16.97 20.39 18.94 21.05 20.72C19.64 22.2 18.86 24.18 18.87 26.23C18.87 34.13 23.68 35.87 28.26 36.44C27.78 36.93 27.41 37.53 27.17 38.17C26.94 38.82 26.84 39.51 26.89 40.2L26.89 45.84" stroke="#FFE55D" stroke-opacity="1.000000" stroke-width="2.800000" stroke-linejoin="round" stroke-linecap="round"/>
	</g>
</svg>
