<svg width="92.927673" height="92.278564" viewBox="0 0 92.9277 92.2786" fill="none" xmlns="http://www.w3.org/2000/svg" xmlns:xlink="http://www.w3.org/1999/xlink">
	<desc>
			Created with Pixso.
	</desc>
	<defs/>
	<path id="Vector" d="M64.64 40.52C73 47.21 82.19 33 80.52 24.64C85.53 9.6 68.82 3.75 62.97 17.96C55.45 23.81 54.61 40.52 64.64 40.52ZM65.48 38.01C56.28 38.85 59.63 23.81 64.64 19.63L64.64 18.79C69.65 6.26 82.19 11.27 77.18 23.81L77.18 24.64C78.85 31.33 72.16 44.7 64.64 38.01L65.48 38.01Z" fill="#124C5F" fill-opacity="1.000000" fill-rule="evenodd"/>
	<path id="Vector" d="M37.07 30.49C45.42 37.18 54.61 22.97 52.94 14.62C57.96 -0.42 41.24 -6.27 35.39 8.77C27.87 14.62 27.04 31.33 37.07 31.33L37.07 30.49ZM37.9 27.99C28.71 28.82 32.05 13.78 37.07 9.6L37.07 8.77C42.08 -3.77 54.61 1.25 49.6 13.78L49.6 14.62C51.27 21.3 44.59 34.67 37.07 27.99L37.9 27.99Z" fill="#124C5F" fill-opacity="1.000000" fill-rule="evenodd"/>
	<path id="Vector" d="M78.85 68.93C86.37 73.95 95.56 66.42 92.22 58.07C95.56 47.21 79.68 41.36 74.67 52.22C67.15 56.4 69.65 68.1 78.01 68.93L78.85 68.93ZM79.68 66.42L78.85 66.42C72.16 65.59 70.49 56.4 76.34 53.89L77.17 53.06C80.52 44.7 93.05 49.71 89.71 58.07L89.71 58.9C92.22 64.75 85.53 71.44 79.68 67.26L79.68 66.42Z" fill="#124C5F" fill-opacity="1.000000" fill-rule="evenodd"/>
	<path id="Vector" d="M8.65 43.86C16.18 48.88 25.37 41.36 22.02 33C25.37 22.14 9.49 16.29 4.48 27.15C-3.04 31.33 -0.54 43.03 7.82 43.86L8.65 43.86ZM9.49 41.36L8.65 41.36C1.97 40.52 0.3 31.33 6.15 28.82L6.98 27.99C10.33 19.63 22.86 24.64 19.52 33L19.52 33.84C22.02 39.69 15.34 46.37 9.49 42.19L9.49 41.36Z" fill="#124C5F" fill-opacity="1.000000" fill-rule="evenodd"/>
	<path id="Vector" d="M65.48 66.42C73.83 40.52 30.38 24.64 20.35 49.71C-5.55 63.92 12 81.47 31.22 88.99C50.44 95.67 76.34 94 65.48 66.42ZM62.97 66.42L62.97 67.26C73 92.33 49.6 94 32.05 87.32C14.5 80.63 -3.04 65.59 21.19 52.22L22.02 51.38C31.22 27.99 70.49 43.03 62.97 66.42Z" fill="#124C5F" fill-opacity="1.000000" fill-rule="evenodd"/>
</svg>
