<svg width="55.000000" height="51.000000" viewBox="0 0 55 51" fill="none" xmlns="http://www.w3.org/2000/svg" xmlns:xlink="http://www.w3.org/1999/xlink">
	<desc>
			Created with Pixso.
	</desc>
	<defs/>
	<path id="Vector" d="M39.2 24.33C39.17 24.65 38.96 24.99 38.49 25.34C33.84 28.76 29.19 32.17 24.55 35.59C23.56 36.32 21.2 36.49 21.2 34.78C21.2 28.45 21.2 22.13 21.2 15.8C21.2 14.25 23.73 13.86 24.74 14.5C29.39 17.4 34.03 20.31 38.68 23.22C39.21 23.55 39.33 23.95 39.2 24.33ZM54.99 29.72C53.52 62.46 -5.97 55.68 0.48 21.22C3.19 6.76 16.14 -0.85 30.37 0.07C46.39 1.1 54.7 14.61 54.99 29.51C54.99 29.55 54.97 29.58 54.96 29.61C54.97 29.65 55 29.68 54.99 29.72ZM52.01 30.15C51.77 19.6 47.73 8.21 37.33 3.68C23.54 -2.33 7.29 4.76 3.78 19.36C0.65 32.42 7.62 44 20.37 48.19C33.97 52.65 51.27 45.62 52.01 30.15Z" fill="#FFFFFF" fill-opacity="1.000000" fill-rule="evenodd"/>
</svg>
