<svg width="64.999939" height="71.050171" viewBox="0 0 64.9999 71.0502" fill="none" xmlns="http://www.w3.org/2000/svg" xmlns:xlink="http://www.w3.org/1999/xlink">
	<desc>
			Created with Pixso.
	</desc>
	<defs/>
	<path id="Vector" d="M13.02 56.74L15.44 48.08L14.56 45.52C12.7 45.19 11.16 44.19 10.17 42.86L6.88 54.52L0.41 66.18C-0.46 67.73 0.08 69.73 1.62 70.62C3.16 71.51 5.13 70.95 6.01 69.4L12.81 57.41C12.91 57.18 13.02 56.96 13.02 56.74Z" fill="#124C5F" fill-opacity="1.000000" fill-rule="evenodd"/>
	<path id="Vector" d="M2.06 32.87C3.05 33.42 4.36 32.98 4.91 31.87L9.84 21.65L10.72 20.98L11.16 18.21C11.38 16.76 12.04 15.43 12.92 14.32L6.99 18.21C6.66 18.43 6.45 18.76 6.23 19.1L1.07 29.87C0.52 30.98 0.96 32.31 2.06 32.87Z" fill="#124C5F" fill-opacity="1.000000" fill-rule="evenodd"/>
	<path id="Vector" d="M26.4 5.99C26.4 9.3 23.75 11.99 20.48 11.99C17.21 11.99 14.56 9.3 14.56 5.99C14.56 2.68 17.21 0 20.48 0C23.75 0 26.4 2.68 26.4 5.99Z" fill="#124C5F" fill-opacity="1.000000" fill-rule="evenodd"/>
	<path id="Vector" d="M59.08 56.74C59.08 56.74 59.19 56.85 59.19 56.96C60.07 56.41 60.4 55.19 60.4 55.19C63.69 56.18 64.35 53.08 64.35 53.08C64.78 52.19 62.59 51.3 62.59 51.3C62.48 49.08 59.96 48.41 59.96 48.41C58.75 47.3 59.08 48.41 59.08 48.41C57.88 48.3 57.11 48.74 57.11 48.74C55.13 46.86 53.93 49.74 53.93 49.74C53.6 49.74 53.38 49.86 53.05 49.86C55.02 52.52 57.11 54.85 59.08 56.74Z" fill="#124C5F" fill-opacity="1.000000" fill-rule="evenodd"/>
	<path id="Vector" d="M61.82 63.51C61.27 62.96 57.33 60.52 57.33 60.52C58.2 60.07 58.31 58.18 58.31 57.52C56.23 55.52 54.04 52.96 51.84 50.08C50.75 50.3 43.51 53.41 36.49 50.19C33.86 48.97 31.56 50.74 31.56 50.74C29.58 53.08 30.46 56.85 30.46 56.85L33.2 53.85C34.63 52.74 35.18 52.96 35.5 53.52C35.72 53.96 35.61 54.52 35.29 54.96C32.65 57.74 33.53 60.63 33.53 60.63L29.8 63.96C28.38 65.51 30.02 66.73 30.02 66.73C30.35 65.51 32.98 63.63 32.98 63.63C32.87 65.07 33.53 65.4 33.53 65.4C35.4 64.85 34.96 62.96 34.96 62.96C37.92 62.85 38.25 61.52 38.25 61.52C41.21 62.07 42.63 60.07 42.63 60.07C43.4 61.52 50.09 63.07 50.09 63.07C50.53 63.29 53.05 68.4 53.05 68.4C53.6 68.51 54.15 69.29 54.15 69.29C55.35 70.07 57.88 69.18 57.88 69.18C57.66 68.18 56.34 68.18 56.34 68.18C53.38 68.18 53.82 63.18 53.82 63.18C53.93 62.51 56.23 63.74 56.23 63.74L61.27 65.62C63.8 66.96 64.89 65.4 64.89 65.4C65.66 64.18 61.82 63.51 61.82 63.51Z" fill="#124C5F" fill-opacity="1.000000" fill-rule="evenodd"/>
	<path id="Vector" d="M37.04 23.98C39.56 29.64 44.94 40.86 51.84 49.97C52.17 49.86 52.61 49.86 53.05 49.74C52.94 49.63 52.83 49.52 52.72 49.3C45.81 40.31 40.44 29.09 38.03 23.54C37.59 23.87 37.15 23.98 37.04 23.98Z" fill="#124C5F" fill-opacity="1.000000" fill-rule="evenodd"/>
	<path id="Vector" d="M36.93 22.87C38.03 22.43 38.68 21.21 38.25 20.09C37.81 18.98 36.6 18.32 35.5 18.76L29.58 20.87C22.67 14.32 22.35 13.21 19.6 12.77C16.09 12.21 12.81 14.76 12.26 18.32L9.63 36.97C9.08 40.53 11.6 43.86 15.11 44.41C15.22 44.41 15.33 44.41 15.44 44.41L18.29 53.08L12.48 61.74C11.49 63.18 11.82 65.29 13.35 66.29C14.78 67.29 16.86 66.96 17.85 65.4L24.65 55.41C25.2 54.52 25.42 53.52 25.09 52.52L21.47 41.53C22.02 40.75 22.46 39.75 22.56 38.75L24.98 22.2L27.72 24.87C28.27 25.42 29.14 25.65 29.91 25.31L36.93 22.87Z" fill="#124C5F" fill-opacity="1.000000" fill-rule="evenodd"/>
</svg>
