<svg width="28.999878" height="29.238525" viewBox="0 0 28.9999 29.2385" fill="none" xmlns="http://www.w3.org/2000/svg" xmlns:xlink="http://www.w3.org/1999/xlink">
	<desc>
			Created with Pixso.
	</desc>
	<defs/>
	<path id="Vector" d="M26.01 7.28C26.03 7.6 26.03 7.92 26.03 8.24C26.03 18 20.05 29.23 9.12 29.23C5.75 29.23 2.63 28.02 0 25.92C0.47 25.99 0.93 26.01 1.43 26.01C4.21 26.01 6.77 24.85 8.81 22.86C6.2 22.79 4.01 20.67 3.25 17.74C3.62 17.81 3.99 17.86 4.37 17.86C4.91 17.86 5.44 17.77 5.94 17.61C3.22 16.92 1.17 13.95 1.17 10.37L1.17 10.27C1.96 10.82 2.88 11.17 3.86 11.21C2.26 9.89 1.21 7.62 1.21 5.07C1.21 3.7 1.5 2.44 2.02 1.34C4.94 5.82 9.34 8.74 14.27 9.06C14.18 8.52 14.13 7.94 14.13 7.37C14.13 3.31 16.78 0 20.07 0C21.78 0 23.33 0.89 24.41 2.32C25.76 2.01 27.04 1.39 28.19 0.54C27.74 2.26 26.81 3.7 25.57 4.61C26.77 4.45 27.93 4.04 28.99 3.47C28.19 4.93 27.17 6.23 26.01 7.28Z" fill="#5B5B5B" fill-opacity="1.000000" fill-rule="evenodd"/>
</svg>
